<svg xmlns="http://www.w3.org/2000/svg" width="15.601" height="19.545" viewBox="0 0 15.601 19.545">
  <g id="نوتیفیکشن" transform="translate(0.05 0.05)">
    <g id="Group_154" data-name="Group 154" transform="translate(6.028)">
      <path id="Path_38" data-name="Path 38" d="M13.014,3.6a.431.431,0,0,1-.431-.431V1.722a.861.861,0,1,0-1.722,0V3.169a.431.431,0,0,1-.861,0V1.722a1.722,1.722,0,1,1,3.445,0V3.169A.43.43,0,0,1,13.014,3.6Z" transform="translate(-10 0)" fill="currentColor" stroke="currentColor" stroke-width="0.1"/>
    </g>
    <g id="Group_155" data-name="Group 155" transform="translate(4.736 16)">
      <path id="Path_39" data-name="Path 39" d="M11.514,23.445A3.017,3.017,0,0,1,8.5,20.431a.431.431,0,0,1,.861,0,2.153,2.153,0,0,0,4.306,0,.431.431,0,0,1,.861,0A3.017,3.017,0,0,1,11.514,23.445Z" transform="translate(-8.5 -20)" fill="currentColor" stroke="currentColor" stroke-width="0.1"/>
    </g>
    <g id="Group_156" data-name="Group 156" transform="translate(0 3.083)">
      <path id="Path_40" data-name="Path 40" d="M16.338,16.434H3.163A1.143,1.143,0,0,1,2,15.314a1.1,1.1,0,0,1,.407-.851,5.113,5.113,0,0,0,1.918-3.972V8.224A5.333,5.333,0,0,1,9.75,3a5.333,5.333,0,0,1,5.425,5.224v2.267a5.107,5.107,0,0,0,1.912,3.967,1.106,1.106,0,0,1,.413.856A1.143,1.143,0,0,1,16.338,16.434ZM9.75,3.746A4.571,4.571,0,0,0,5.1,8.224v2.267a5.842,5.842,0,0,1-2.186,4.537.369.369,0,0,0-.139.286.381.381,0,0,0,.388.373H16.338a.381.381,0,0,0,.388-.373.368.368,0,0,0-.136-.284A5.847,5.847,0,0,1,14.4,10.492V8.224A4.571,4.571,0,0,0,9.75,3.746Z" transform="translate(-2 -3)" fill="currentColor" stroke="currentColor" stroke-width="0.1"/>
    </g>
  </g>
</svg>
