<svg xmlns="http://www.w3.org/2000/svg" width="17.473" height="22.807" viewBox="0 0 17.473 22.807">
  <g id="calculator" transform="translate(0)">
    <path id="Path_19" data-name="Path 19" d="M73.266,0H60.207A2.208,2.208,0,0,0,58,2.207V20.6a2.208,2.208,0,0,0,2.207,2.207H73.266A2.208,2.208,0,0,0,75.473,20.6V2.207A2.208,2.208,0,0,0,73.266,0ZM74,20.6a.738.738,0,0,1-.736.736H60.207a.738.738,0,0,1-.736-.736V2.207a.738.738,0,0,1,.736-.736H73.266A.738.738,0,0,1,74,2.207Z" transform="translate(-58)" fill="currentColor"/>
    <path id="Path_20" data-name="Path 20" d="M129.932,58h-8.093A1.839,1.839,0,0,0,120,59.839v2.3a1.839,1.839,0,0,0,1.839,1.839h8.093a1.839,1.839,0,0,0,1.839-1.839v-2.3A1.839,1.839,0,0,0,129.932,58Zm.368,4.138a.369.369,0,0,1-.368.368h-8.093a.369.369,0,0,1-.368-.368v-2.3a.369.369,0,0,1,.368-.368h8.093a.369.369,0,0,1,.368.368Z" transform="translate(-117.149 -55.333)" fill="currentColor"/>
    <path id="Path_21" data-name="Path 21" d="M123.771,247.736a.738.738,0,0,1-.736.736h-2.3a.736.736,0,0,1,0-1.471h2.3A.738.738,0,0,1,123.771,247.736Z" transform="translate(-117.149 -235.643)" fill="currentColor"/>
    <path id="Path_22" data-name="Path 22" d="M123.771,317.736a.738.738,0,0,1-.736.736h-2.3a.736.736,0,0,1,0-1.471h2.3A.738.738,0,0,1,123.771,317.736Z" transform="translate(-117.149 -302.424)" fill="currentColor"/>
    <path id="Path_23" data-name="Path 23" d="M123.771,387.736a.738.738,0,0,1-.736.736h-2.3a.736.736,0,0,1,0-1.471h2.3A.738.738,0,0,1,123.771,387.736Z" transform="translate(-117.149 -369.205)" fill="currentColor"/>
    <path id="Path_24" data-name="Path 24" d="M235.77,247.736a.738.738,0,0,1-.736.736h-2.3a.736.736,0,0,1,0-1.471h2.3A.738.738,0,0,1,235.77,247.736Z" transform="translate(-223.999 -235.643)" fill="currentColor"/>
    <path id="Path_25" data-name="Path 25" d="M235.77,317.736a.738.738,0,0,1-.736.736h-2.3a.736.736,0,0,1,0-1.471h2.3A.738.738,0,0,1,235.77,317.736Z" transform="translate(-223.999 -302.424)" fill="currentColor"/>
    <path id="Path_26" data-name="Path 26" d="M235.77,387.736a.738.738,0,0,1-.736.736h-2.3a.736.736,0,0,1,0-1.471h2.3A.738.738,0,0,1,235.77,387.736Z" transform="translate(-223.999 -369.205)" fill="currentColor"/>
    <path id="Path_27" data-name="Path 27" d="M343.563,247.736v6.437a.738.738,0,0,1-.736.736h-.092a.738.738,0,0,1-.736-.736v-6.437a.738.738,0,0,1,.736-.736h.092A.738.738,0,0,1,343.563,247.736Z" transform="translate(-328.941 -235.643)" fill="currentColor"/>
  </g>
</svg>
