<svg id="calendar-2" xmlns="http://www.w3.org/2000/svg" width="17.488" height="20.16" viewBox="0 0 17.488 20.16">
  <path id="Path_689" data-name="Path 689" d="M16.36,3.494V1.979a.729.729,0,0,0-1.457,0V3.436H8.588V1.979a.729.729,0,0,0-1.457,0V3.494A4.127,4.127,0,0,0,3.04,7.623a.488.488,0,0,0,.486.515H19.965a.482.482,0,0,0,.486-.515A4.127,4.127,0,0,0,16.36,3.494Z" transform="translate(-3.001 -1.25)" fill="#21c0ad"/>
  <path id="Path_690" data-name="Path 690" d="M19.517,9.84a.974.974,0,0,1,.972.972V16.8c0,2.915-1.457,4.858-4.858,4.858H7.858C4.457,21.654,3,19.711,3,16.8V10.812a.974.974,0,0,1,.972-.972Z" transform="translate(-3 -1.494)" fill="#21c0ad" opacity="0.4"/>
  <path id="Path_691" data-name="Path 691" d="M8.472,14.943a.967.967,0,0,1-.369-.078.876.876,0,0,1-.525-.525.916.916,0,0,1,0-.738.876.876,0,0,1,.525-.525.972.972,0,0,1,.738,0,.876.876,0,0,1,.525.525.916.916,0,0,1,0,.738.876.876,0,0,1-.525.525A.967.967,0,0,1,8.472,14.943Z" transform="translate(-3.128 -1.584)" fill="#21c0ad"/>
  <path id="Path_692" data-name="Path 692" d="M11.972,14.943a.967.967,0,0,1-.369-.078,1.122,1.122,0,0,1-.321-.2.985.985,0,0,1,0-1.38,1.122,1.122,0,0,1,.321-.2.89.89,0,0,1,.738,0,1.122,1.122,0,0,1,.321.2.985.985,0,0,1,0,1.38,1.122,1.122,0,0,1-.321.2A.967.967,0,0,1,11.972,14.943Z" transform="translate(-3.227 -1.584)" fill="#21c0ad"/>
  <path id="Path_693" data-name="Path 693" d="M8.472,18.443a.967.967,0,0,1-.369-.078,1.122,1.122,0,0,1-.321-.2.985.985,0,0,1,0-1.38,1.122,1.122,0,0,1,.321-.2.972.972,0,0,1,.738,0,1.122,1.122,0,0,1,.321.2.985.985,0,0,1,0,1.38,1.122,1.122,0,0,1-.321.2A.967.967,0,0,1,8.472,18.443Z" transform="translate(-3.128 -1.684)" fill="#21c0ad"/>
</svg>
