<svg xmlns="http://www.w3.org/2000/svg" width="25.103" height="24.573" viewBox="0 0 25.103 24.573">
  <g id="Group_170" data-name="Group 170" opacity="0.6">
    <path id="Path_76" data-name="Path 76" d="M273.486,328.239h-.577a.367.367,0,1,0,0,.735h.577a.367.367,0,1,0,0-.735Z" transform="translate(-259.179 -312.413)" fill="#fff"/>
    <path id="Path_77" data-name="Path 77" d="M316.428,328.239h-.577a.367.367,0,1,0,0,.735h.577a.367.367,0,1,0,0-.735Z" transform="translate(-300.015 -312.413)" fill="#fff"/>
    <path id="Path_78" data-name="Path 78" d="M359.37,328.239h-.577a.367.367,0,1,0,0,.735h.577a.367.367,0,1,0,0-.735Z" transform="translate(-340.852 -312.413)" fill="#fff"/>
    <path id="Path_79" data-name="Path 79" d="M402.311,328.239h-.577a.367.367,0,1,0,0,.735h.577a.367.367,0,1,0,0-.735Z" transform="translate(-381.687 -312.413)" fill="#fff"/>
    <path id="Path_80" data-name="Path 80" d="M273.486,367.6h-.577a.367.367,0,1,0,0,.735h.577a.367.367,0,1,0,0-.735Z" transform="translate(-259.179 -349.848)" fill="#fff"/>
    <path id="Path_81" data-name="Path 81" d="M316.428,367.6h-.577a.367.367,0,1,0,0,.735h.577a.367.367,0,1,0,0-.735Z" transform="translate(-300.015 -349.848)" fill="#fff"/>
    <path id="Path_82" data-name="Path 82" d="M359.37,367.6h-.577a.367.367,0,1,0,0,.735h.577a.367.367,0,1,0,0-.735Z" transform="translate(-340.852 -349.848)" fill="#fff"/>
    <path id="Path_83" data-name="Path 83" d="M402.311,367.6h-.577a.367.367,0,1,0,0,.735h.577a.367.367,0,1,0,0-.735Z" transform="translate(-381.687 -349.848)" fill="#fff"/>
    <path id="Path_84" data-name="Path 84" d="M128.787,161.491h-1.865a.367.367,0,1,0,0,.735h1.865a.367.367,0,1,0,0-.735Z" transform="translate(-120.35 -153.835)" fill="#fff"/>
    <path id="Path_85" data-name="Path 85" d="M128.787,191.514h-1.865a.367.367,0,1,0,0,.735h1.865a.367.367,0,1,0,0-.735Z" transform="translate(-120.35 -182.387)" fill="#fff"/>
    <path id="Path_86" data-name="Path 86" d="M274.913,226.621V224.2a.76.76,0,0,0-.76-.759h-6.74a.76.76,0,0,0-.76.759v2.423a.76.76,0,0,0,.76.759h6.74A.76.76,0,0,0,274.913,226.621Zm-.735,0a.024.024,0,0,1-.024.024h-6.74a.024.024,0,0,1-.024-.024V224.2a.024.024,0,0,1,.024-.024h6.74a.024.024,0,0,1,.024.024Z" transform="translate(-253.58 -212.748)" fill="#fff"/>
    <path id="Path_87" data-name="Path 87" d="M68.1,135.673v.954a.686.686,0,0,0,.685.685h6.961a.686.686,0,0,0,.685-.685v-.954a.686.686,0,0,0-.685-.685h-.573v-5.495a.765.765,0,0,0-.764-.764H70.127a.765.765,0,0,0-.764.764v5.495h-.573A.686.686,0,0,0,68.1,135.673Zm7.073.05H75.7v.853h-.523Zm-5.079-6.23a.029.029,0,0,1,.029-.029h4.286a.029.029,0,0,1,.029.029v7.083H70.1Zm-1.258,6.23h.523v.853h-.523Z" transform="translate(-64.765 -122.679)" fill="#fff"/>
    <path id="Path_88" data-name="Path 88" d="M24.315,25.74h-.523L23.01,14.387a.909.909,0,0,0-.9-.844H18.663V11.978h3.618a1.138,1.138,0,0,0,1.137-1.136V6.387a1.138,1.138,0,0,0-1.137-1.136H12.043a1.138,1.138,0,0,0-1.137,1.136v4.455a1.138,1.138,0,0,0,1.137,1.136h3.618v1.565H11.77a.367.367,0,1,0,0,.735H22.105a.172.172,0,0,1,.171.159l.779,11.3H2.029l.779-11.3a.172.172,0,0,1,.171-.159h.259a.367.367,0,1,0,0-.735H2.979a.909.909,0,0,0-.9.844L1.292,25.74h-.5A.788.788,0,0,0,0,26.527v2.51a.788.788,0,0,0,.788.787H24.315a.788.788,0,0,0,.788-.787v-2.51A.788.788,0,0,0,24.315,25.74Zm-12.273-14.5a.4.4,0,0,1-.4-.4V6.387a.4.4,0,0,1,.4-.4H22.281a.4.4,0,0,1,.4.4v4.455a.4.4,0,0,1-.4.4Zm5.885,2.3H16.4V11.978h1.531Zm6.44,15.493a.052.052,0,0,1-.052.052H20.7v-.794a.906.906,0,0,0-.905-.9H18.469a.367.367,0,1,0,0,.735H19.8a.17.17,0,0,1,.17.17v.794H5.333v-.794a.17.17,0,0,1,.17-.17H16.749a.367.367,0,1,0,0-.735H5.5a.906.906,0,0,0-.905.9v.794H.788a.052.052,0,0,1-.052-.052v-2.51a.052.052,0,0,1,.052-.052H24.315a.052.052,0,0,1,.052.052v2.51Z" transform="translate(0 -5.251)" fill="#fff"/>
    <path id="Path_89" data-name="Path 89" d="M261.366,35.275h-8.239a.665.665,0,0,0-.664.664V38.4a.665.665,0,0,0,.664.664h8.239a.665.665,0,0,0,.664-.664V35.939A.665.665,0,0,0,261.366,35.275Zm-.071,3.05h-8.1V36.01h8.1Z" transform="translate(-240.085 -33.804)" fill="#fff"/>
  </g>
</svg>
