<svg xmlns="http://www.w3.org/2000/svg" width="19.356" height="17.409" viewBox="0 0 19.356 17.409">
  <g id="circular-arrow" transform="translate(0.101 -26.755)">
    <g id="Group_540" data-name="Group 540" transform="translate(0 26.855)">
      <path id="Path_624" data-name="Path 624" d="M2.566,37.618a.261.261,0,0,0,.421,0l2.5-3.064c.116-.142.061-.257-.122-.257H4.039a.262.262,0,0,1-.269-.326A6.942,6.942,0,1,1,10.55,42.4a.831.831,0,1,0,0,1.662,8.6,8.6,0,1,0-8.473-10.1.4.4,0,0,1-.384.328H.183c-.184,0-.238.115-.122.257Z" transform="translate(0 -26.855)" fill="currentColor" stroke="currentColor" stroke-width="0.2"/>
    </g>
  </g>
</svg>
