<svg xmlns="http://www.w3.org/2000/svg" width="19.721" height="19.721" viewBox="0 0 19.721 19.721">
  <g id="dashboard" transform="translate(0 19.721) rotate(-90)">
    <path id="Path_177" data-name="Path 177" d="M7.6,6.574H1.438A1.44,1.44,0,0,1,0,5.136v-3.7A1.44,1.44,0,0,1,1.438,0H7.6A1.44,1.44,0,0,1,9.039,1.438v3.7A1.44,1.44,0,0,1,7.6,6.574ZM1.438,1.233a.206.206,0,0,0-.205.205v3.7a.206.206,0,0,0,.205.206H7.6a.206.206,0,0,0,.206-.206v-3.7A.206.206,0,0,0,7.6,1.233Zm0,0" transform="translate(0 0)" fill="#b1b1b1"/>
    <path id="Path_178" data-name="Path 178" d="M7.6,224.836H1.438A1.44,1.44,0,0,1,0,223.4V214.77a1.44,1.44,0,0,1,1.438-1.438H7.6a1.44,1.44,0,0,1,1.438,1.438V223.4A1.44,1.44,0,0,1,7.6,224.836ZM1.438,214.565a.206.206,0,0,0-.205.206V223.4a.206.206,0,0,0,.205.205H7.6a.206.206,0,0,0,.206-.205V214.77a.206.206,0,0,0-.206-.206Zm0,0" transform="translate(0 -205.115)" fill="#b1b1b1"/>
    <path id="Path_179" data-name="Path 179" d="M284.933,347.906H278.77a1.44,1.44,0,0,1-1.438-1.438v-3.7a1.44,1.44,0,0,1,1.438-1.438h6.163a1.44,1.44,0,0,1,1.438,1.438v3.7A1.44,1.44,0,0,1,284.933,347.906Zm-6.163-5.341a.206.206,0,0,0-.206.206v3.7a.206.206,0,0,0,.206.205h6.163a.206.206,0,0,0,.205-.205v-3.7a.206.206,0,0,0-.205-.206Zm0,0" transform="translate(-266.65 -328.185)" fill="#b1b1b1"/>
    <path id="Path_180" data-name="Path 180" d="M284.933,11.5H278.77a1.44,1.44,0,0,1-1.438-1.438V1.438A1.44,1.44,0,0,1,278.77,0h6.163a1.44,1.44,0,0,1,1.438,1.438v8.628A1.44,1.44,0,0,1,284.933,11.5ZM278.77,1.233a.206.206,0,0,0-.206.205v8.628a.206.206,0,0,0,.206.206h6.163a.206.206,0,0,0,.205-.206V1.438a.206.206,0,0,0-.205-.205Zm0,0" transform="translate(-266.65 0)" fill="#b1b1b1"/>
  </g>
</svg>
