<svg id="edit" xmlns="http://www.w3.org/2000/svg" width="19.472" height="19.375" viewBox="0 0 19.472 19.375">
  <path id="Path_122" data-name="Path 122" d="M17.972,49.444a.485.485,0,0,0-.485.485v4.306a1.456,1.456,0,0,1-1.455,1.455H2.425A1.456,1.456,0,0,1,.97,54.235V41.6a1.457,1.457,0,0,1,1.455-1.455H6.731a.485.485,0,0,0,0-.97H2.425A2.428,2.428,0,0,0,0,41.6V54.235A2.428,2.428,0,0,0,2.425,56.66H16.032a2.428,2.428,0,0,0,2.425-2.425V49.929A.485.485,0,0,0,17.972,49.444Zm0,0" transform="translate(0 -37.285)" fill="#ffce5b"/>
  <path id="Path_123" data-name="Path 123" d="M121.208.9a2.182,2.182,0,0,0-3.086,0L109.47,9.552a.485.485,0,0,0-.124.213l-1.138,4.108a.485.485,0,0,0,.6.6l4.108-1.138a.485.485,0,0,0,.214-.124l8.652-8.652a2.185,2.185,0,0,0,0-3.086ZM110.527,9.867l7.081-7.081,2.284,2.284-7.081,7.081Zm-.456.915,1.824,1.825-2.524.7ZM121.092,3.87l-.514.514L118.294,2.1l.515-.514a1.212,1.212,0,0,1,1.714,0l.569.569A1.214,1.214,0,0,1,121.092,3.87Zm0,0" transform="translate(-102.943 -0.261)" fill="#ffce5b"/>
</svg>
