<svg id="global" xmlns="http://www.w3.org/2000/svg" width="20.16" height="20.16" viewBox="0 0 20.16 20.16">
  <path id="Path_680" data-name="Path 680" d="M7.687,20.946c-.03,0-.071.02-.1.02a10.086,10.086,0,0,1-4.526-4.526c0-.03.02-.071.02-.1a32.147,32.147,0,0,0,3.76.847A33.816,33.816,0,0,0,7.687,20.946Z" transform="translate(-1.992 -1.885)" fill="#21c0ad" opacity="0.4"/>
  <path id="Path_681" data-name="Path 681" d="M20.976,16.451a10.174,10.174,0,0,1-4.687,4.607,30.807,30.807,0,0,0,.917-3.871,31.531,31.531,0,0,0,3.75-.847C20.946,16.38,20.976,16.42,20.976,16.451Z" transform="translate(-1.886 -1.885)" fill="#21c0ad" opacity="0.4"/>
  <path id="Path_682" data-name="Path 682" d="M21.057,7.748a31.9,31.9,0,0,0-3.851-.917,28.137,28.137,0,0,0-.917-3.851A10.132,10.132,0,0,1,21.057,7.748Z" transform="translate(-1.886 -1.992)" fill="#21c0ad" opacity="0.4"/>
  <path id="Path_683" data-name="Path 683" d="M7.688,3.09a31.5,31.5,0,0,0-.837,3.75,29.1,29.1,0,0,0-3.871.907A10.174,10.174,0,0,1,7.587,3.06C7.617,3.06,7.658,3.09,7.688,3.09Z" transform="translate(-1.992 -1.992)" fill="#21c0ad" opacity="0.4"/>
  <path id="Path_684" data-name="Path 684" d="M15.546,6.627a31.579,31.579,0,0,0-7.036,0A28.6,28.6,0,0,1,9.538,2.534a1.648,1.648,0,0,0,.02-.222A10.489,10.489,0,0,1,12.028,2a10.4,10.4,0,0,1,2.46.312,1.673,1.673,0,0,0,.03.222A28.941,28.941,0,0,1,15.546,6.627Z" transform="translate(-1.948 -2)" fill="#21c0ad"/>
  <path id="Path_685" data-name="Path 685" d="M6.627,15.546a28.267,28.267,0,0,1-4.092-1.028,1.649,1.649,0,0,0-.222-.02A10.489,10.489,0,0,1,2,12.028a10.4,10.4,0,0,1,.312-2.46,1.673,1.673,0,0,0,.222-.03A30.009,30.009,0,0,1,6.627,8.51,32.835,32.835,0,0,0,6.627,15.546Z" transform="translate(-2 -1.948)" fill="#21c0ad"/>
  <path id="Path_686" data-name="Path 686" d="M22.037,12.028a10.489,10.489,0,0,1-.312,2.47,1.649,1.649,0,0,0-.222.02,30.384,30.384,0,0,1-4.092,1.028,31.579,31.579,0,0,0,0-7.036A28.6,28.6,0,0,1,21.5,9.538a.84.84,0,0,0,.222.03A10.472,10.472,0,0,1,22.037,12.028Z" transform="translate(-1.877 -1.948)" fill="#21c0ad"/>
  <path id="Path_687" data-name="Path 687" d="M15.546,17.41A28.267,28.267,0,0,1,14.517,21.5a1.673,1.673,0,0,0-.03.222,10.4,10.4,0,0,1-2.46.312,10.49,10.49,0,0,1-2.47-.312,1.648,1.648,0,0,0-.02-.222A30.009,30.009,0,0,1,8.51,17.41a31.541,31.541,0,0,0,3.518.222A31.389,31.389,0,0,0,15.546,17.41Z" transform="translate(-1.948 -1.877)" fill="#21c0ad"/>
  <path id="Path_688" data-name="Path 688" d="M15.825,15.825a30.275,30.275,0,0,1-7.587,0,30.279,30.279,0,0,1,0-7.587,30.279,30.279,0,0,1,7.587,0A30.275,30.275,0,0,1,15.825,15.825Z" transform="translate(-1.952 -1.952)" fill="#21c0ad"/>
</svg>
