<svg xmlns="http://www.w3.org/2000/svg" width="23.182" height="28.117" viewBox="0 0 23.182 28.117">
  <g id="profit" transform="translate(-44.931 0)" opacity="0.6">
    <path id="Path_190" data-name="Path 190" d="M286.14,194.469a.982.982,0,0,1-.708-.415.549.549,0,0,0-.842.706,2.276,2.276,0,0,0,1,.713v.667a.549.549,0,1,0,1.1,0v-.662a1.648,1.648,0,0,0-.54-3.2.549.549,0,0,1-.005-1.1.882.882,0,0,1,.6.287.549.549,0,1,0,.764-.789,2.116,2.116,0,0,0-.818-.509v-.613a.549.549,0,0,0-1.1,0v.624a1.647,1.647,0,0,0,.559,3.2.549.549,0,1,1,0,1.1Z" transform="translate(-226.376 -178.621)" fill="#fff"/>
    <ellipse id="Ellipse_33" data-name="Ellipse 33" cx="0.636" cy="0.424" rx="0.636" ry="0.424" transform="translate(55.221 27.206)" fill="#fff"/>
    <path id="Path_191" data-name="Path 191" d="M50.794,21.527H45.48a.549.549,0,0,0-.549.549v5.492a.549.549,0,0,0,.549.549h7.963a.549.549,0,0,0,0-1.1H49.324V22.625h1.138a3.887,3.887,0,0,0-.04.55.549.549,0,1,0,1.1,0,2.747,2.747,0,0,1,2.746-2.746h3.75a1.65,1.65,0,0,1-1.553,1.1h-2.2a.549.549,0,0,0-.549.549,2.749,2.749,0,0,0,2.746,2.746h5.243a.549.549,0,0,0,.388-.161l2.639-2.639a1.647,1.647,0,0,1,1.933-.294l-4.311,5.29H58.386a.549.549,0,1,0,0,1.1h4.23a.549.549,0,0,0,.426-.2l4.836-5.934a.549.549,0,0,0-.037-.735,2.735,2.735,0,0,0-.784-.549,8.174,8.174,0,0,0,.932-5.468c-.646-3.768-4.257-7.8-5.343-8.937L64.621,3.03a.549.549,0,0,0-.336-.817l-3.977-.994V.549a.549.549,0,0,0-.682-.533l-4.393,1.1a.549.549,0,0,0-.365.764L56.9,6.258c-1.046,1.095-4.723,5.166-5.375,8.971A8.342,8.342,0,0,0,52.1,20,3.9,3.9,0,0,0,50.794,21.527Zm-2.568,5.492h-2.2V22.626h2.2Zm7.918-25,3.066-.766V4.174a.549.549,0,0,0,1.1,0V2.351L63.3,3.1l-1.65,2.723H57.912Zm-3.532,13.4c.614-3.583,4.369-7.65,5.182-8.495h3.931c.813.845,4.567,4.907,5.181,8.495a7.158,7.158,0,0,1-.979,5.028,2.718,2.718,0,0,0-1.97.8l-2.478,2.478H56.464a1.65,1.65,0,0,1-1.553-1.1h1.553a2.749,2.749,0,0,0,2.746-2.746.549.549,0,0,0-.549-.549H54.267a3.817,3.817,0,0,0-1.183.187A7.229,7.229,0,0,1,52.611,15.414Z" transform="translate(0 0)" fill="#fff"/>
  </g>
</svg>
