<svg id="mastercardlogo" xmlns="http://www.w3.org/2000/svg" width="46.685" height="28.855" viewBox="0 0 46.685 28.855">
    <path id="Path_72" data-name="Path 72" d="M12.623,22.686H0V0H12.624Z" transform="translate(17.031 3.084)"
        fill="#ff5f00" />
    <path id="Path_73" data-name="Path 73"
        d="M17.831,14.428a14.4,14.4,0,0,1,5.51-11.343,14.428,14.428,0,1,0,0,22.686,14.4,14.4,0,0,1-5.51-11.343"
        transform="translate(0 0)" fill="#eb001b" />
    <path id="Path_74" data-name="Path 74"
        d="M23.343,14.428A14.427,14.427,0,0,1,0,25.771,14.4,14.4,0,0,0,5.511,14.428,14.4,14.4,0,0,0,0,3.085,14.427,14.427,0,0,1,23.342,14.428"
        transform="translate(23.342 0)" fill="#f79e1b" />
</svg>