<svg xmlns="http://www.w3.org/2000/svg" width="32.833" height="32.83" viewBox="0 0 32.833 32.83">
  <g id="Group_6" data-name="Group 6" transform="translate(0 0)" opacity="0.6">
    <path id="Path_6" data-name="Path 6" d="M.985,6.315h.984V8.466a1.013,1.013,0,0,0,.984,1.041H6.891a1.013,1.013,0,0,0,.984-1.041V6.315h.984a.984.984,0,0,0,.909-.642,1.084,1.084,0,0,0-.213-1.134L5.618.3A.947.947,0,0,0,4.226.3L.289,4.538A1.084,1.084,0,0,0,.075,5.673a.984.984,0,0,0,.909.642Z" transform="translate(6.294 0)" fill="#fff"/>
    <g id="Group_5" data-name="Group 5" transform="translate(0 11.99)">
      <path id="Path_7" data-name="Path 7" d="M250.361,272a9.914,9.914,0,1,0,9.361,9.9A9.641,9.641,0,0,0,250.361,272Zm1.961,14.352a4.255,4.255,0,0,1-.791.319v.342a1.172,1.172,0,1,1-2.34,0v-.3a3.633,3.633,0,0,1-1.326-.653,1.285,1.285,0,0,1-.234-1.732,1.129,1.129,0,0,1,1.638-.247,2.011,2.011,0,0,0,2.007.061c.257-.136.395-.3.395-.384,0-.148,0-.171-.156-.259a5.316,5.316,0,0,0-1.367-.381,6.736,6.736,0,0,1-2.042-.631,2.656,2.656,0,0,1-1.394-2.442,2.926,2.926,0,0,1,1.687-2.6,4.256,4.256,0,0,1,.793-.321v-.34a1.172,1.172,0,1,1,2.34,0v.3a3.634,3.634,0,0,1,1.326.653,1.285,1.285,0,0,1,.234,1.732,1.129,1.129,0,0,1-1.638.248,2.013,2.013,0,0,0-2.009-.062c-.258.136-.393.3-.393.384,0,.148,0,.171.156.259a5.322,5.322,0,0,0,1.367.381,6.738,6.738,0,0,1,2.042.631,2.656,2.656,0,0,1,1.394,2.442A2.927,2.927,0,0,1,252.321,286.352Z" transform="translate(-226.888 -270.957)" fill="#fff"/>
      <g id="Group_4" data-name="Group 4" transform="translate(0 0)">
        <path id="Path_9" data-name="Path 9" d="M61,468.1v1.1a1.071,1.071,0,0,0,1.04,1.1H75.625a10.844,10.844,0,0,1-2.778-3.3H62.04A1.071,1.071,0,0,0,61,468.1Z" transform="translate(-58.92 -450.844)" fill="#fff"/>
        <path id="Path_11" data-name="Path 11" d="M32.04,395.3H44.012a11.41,11.41,0,0,1-.531-3.3H32.04A1.071,1.071,0,0,0,31,393.1v1.1A1.071,1.071,0,0,0,32.04,395.3Z" transform="translate(-31 -381.229)" fill="#fff"/>
        <path id="Path_10" data-name="Path 10" d="M61,318.1v1.1a1.071,1.071,0,0,0,1.04,1.1h9.571a11.228,11.228,0,0,1,1.237-3.3H62.04A1.071,1.071,0,0,0,61,318.1Z" transform="translate(-58.92 -311.615)" fill="#fff"/>
        <path id="Path_12" data-name="Path 12" d="M32.04,245.3H46.473a10.093,10.093,0,0,1,7.409-3.3H32.04A1.071,1.071,0,0,0,31,243.1v1.1A1.071,1.071,0,0,0,32.04,245.3Z" transform="translate(-31 -242)" fill="#fff"/>
      </g>
    </g>
  </g>
</svg>
