<svg xmlns="http://www.w3.org/2000/svg" width="22.4" height="22.4" viewBox="0 0 22.4 22.4">
  <g id="print" transform="translate(0.15 0.15)">
    <path id="Path_282" data-name="Path 282" d="M20.373,6.906H18.992V3.453a.691.691,0,0,0-.691-.691H16.92V1.036A1.037,1.037,0,0,0,15.884,0H6.216A1.037,1.037,0,0,0,5.18,1.036V2.762H3.8a.691.691,0,0,0-.691.691V6.906H1.727A1.728,1.728,0,0,0,0,8.633v7.6a1.728,1.728,0,0,0,1.727,1.727H5.18v3.108A1.037,1.037,0,0,0,6.216,22.1h9.669a1.037,1.037,0,0,0,1.036-1.036V17.956h3.453A1.728,1.728,0,0,0,22.1,16.229v-7.6A1.728,1.728,0,0,0,20.373,6.906ZM18.3,3.453V6.906H16.92V3.453ZM5.87,1.036A.346.346,0,0,1,6.216.691h9.669a.346.346,0,0,1,.345.345v5.87H5.87ZM3.8,3.453H5.18V6.906H3.8ZM16.229,21.064a.346.346,0,0,1-.345.345H6.216a.346.346,0,0,1-.345-.345v-5.87H16.229Zm5.18-4.834a1.037,1.037,0,0,1-1.036,1.036H16.92V15.193h.691a.345.345,0,1,0,0-.691H4.489a.345.345,0,1,0,0,.691H5.18v2.072H1.727A1.037,1.037,0,0,1,.691,16.229v-7.6A1.037,1.037,0,0,1,1.727,7.6H20.373a1.037,1.037,0,0,1,1.036,1.036Z" fill="currentColor" stroke="currentColor" stroke-width="0.3"/>
    <path id="Path_283" data-name="Path 283" d="M433.036,192a1.036,1.036,0,1,0,1.036,1.036A1.037,1.037,0,0,0,433.036,192Zm0,1.381a.345.345,0,1,1,.345-.345A.346.346,0,0,1,433.036,193.381Z" transform="translate(-413.353 -183.713)" fill="currentColor" stroke="currentColor" stroke-width="0.3"/>
    <path id="Path_284" data-name="Path 284" d="M369.036,192a1.036,1.036,0,1,0,1.036,1.036A1.037,1.037,0,0,0,369.036,192Zm0,1.381a.345.345,0,1,1,.345-.345A.346.346,0,0,1,369.036,193.381Z" transform="translate(-352.116 -183.713)" fill="currentColor" stroke="currentColor" stroke-width="0.3"/>
    <path id="Path_285" data-name="Path 285" d="M175.6,376h-7.251a.345.345,0,0,0,0,.691H175.6a.345.345,0,0,0,0-.691Z" transform="translate(-160.749 -359.771)" fill="currentColor" stroke="currentColor" stroke-width="0.3"/>
    <path id="Path_286" data-name="Path 286" d="M175.6,416h-7.251a.345.345,0,0,0,0,.691H175.6a.345.345,0,0,0,0-.691Z" transform="translate(-160.749 -398.044)" fill="currentColor" stroke="currentColor" stroke-width="0.3"/>
    <path id="Path_287" data-name="Path 287" d="M175.6,456h-7.251a.345.345,0,0,0,0,.691H175.6a.345.345,0,0,0,0-.691Z" transform="translate(-160.749 -436.318)" fill="currentColor" stroke="currentColor" stroke-width="0.3"/>
  </g>
</svg>
