<svg xmlns="http://www.w3.org/2000/svg" width="29.828" height="29.884" viewBox="0 0 29.828 29.884">
  <g id="borrow" opacity="0.6">
    <path id="Path_186" data-name="Path 186" d="M70.472,3.666A.583.583,0,0,0,70.06,3.5H64.117a6.408,6.408,0,1,0-1.1,7.364,6.333,6.333,0,0,0,5.5,3.123h2.467L77.8,20.8a.583.583,0,0,0,.995-.412V12.234a.583.583,0,0,0-.171-.412ZM58.408,11.652a5.243,5.243,0,1,1,4.807-7.34,5.187,5.187,0,0,1,.4,1.515H61.9a.583.583,0,0,0-.583.583,2.924,2.924,0,0,0,1.632,2.616A5.217,5.217,0,0,1,58.408,11.652Zm19.225,7.332-5.039-5.039a.582.582,0,0,0-.2-1.128H68.517c-2.432,0-3.629-1.288-4.741-2.907a6.384,6.384,0,0,0,.343-.591l.116,0h.975a4.087,4.087,0,0,0,3.686,2.33.583.583,0,1,0,0-1.165,2.919,2.919,0,0,1-2.748-1.942.583.583,0,0,0-.549-.388H64.234a1.748,1.748,0,0,1-1.647-1.165h6.308a.583.583,0,1,0,0-1.165h-4.1a6.345,6.345,0,0,0-.215-1.165h5.243l7.815,7.815Z" transform="translate(-48.971 0)" fill="#fff"/>
    <path id="Path_187" data-name="Path 187" d="M133.316,43.471a.583.583,0,0,1-.006-1.165h0a.937.937,0,0,1,.632.3.583.583,0,0,0,.81-.837,2.246,2.246,0,0,0-.868-.54v-.651a.583.583,0,1,0-1.165,0v.662a1.747,1.747,0,0,0,.592,3.391.583.583,0,0,1,0,1.165h-.005a1.042,1.042,0,0,1-.751-.44.583.583,0,0,0-.893.748,2.414,2.414,0,0,0,1.056.756v.708a.583.583,0,1,0,1.165,0v-.7a1.748,1.748,0,0,0-.573-3.4Z" transform="translate(-123.868 -37.67)" fill="#fff"/>
    <path id="Path_188" data-name="Path 188" d="M127.747,246a.583.583,0,0,0-.583.583v2.438l-.171-.171a.583.583,0,1,0-.824.824l1.165,1.165a.583.583,0,0,0,.824,0l1.165-1.165a.583.583,0,0,0-.824-.824l-.171.171v-2.438A.583.583,0,0,0,127.747,246Z" transform="translate(-118.659 -231.669)" fill="#fff"/>
    <ellipse id="Ellipse_32" data-name="Ellipse 32" cx="0.483" cy="0.724" rx="0.483" ry="0.724" transform="translate(8.153 28.435)" fill="#fff"/>
    <path id="Path_189" data-name="Path 189" d="M4.238,354.33H.583a.583.583,0,0,0-.583.583v5.826a.583.583,0,0,0,.583.583h5.3a.583.583,0,0,0,0-1.165H1.165v-4.661H3.887a4.122,4.122,0,0,0-.042.583.583.583,0,1,0,1.165,0,2.909,2.909,0,0,1,2.913-2.913H11.9a1.75,1.75,0,0,1-1.648,1.166H7.923a.583.583,0,0,0-.583.583,2.915,2.915,0,0,0,2.913,2.912h5.562a.581.581,0,0,0,.412-.171l2.814-2.814.007-.007a1.755,1.755,0,0,1,2.028-.289L16.5,360.156H11.127a.583.583,0,0,0,0,1.165H16.78a.583.583,0,0,0,.452-.215l5.13-6.295a.583.583,0,0,0-.04-.78,2.924,2.924,0,0,0-3.69-.353,2.918,2.918,0,0,0-3.71.34l-2.643,2.643H10.253A1.751,1.751,0,0,1,8.605,355.5h1.648a2.916,2.916,0,0,0,2.913-2.913.583.583,0,0,0-.583-.583H7.923a4.086,4.086,0,0,0-3.685,2.33Zm11.508.512a1.751,1.751,0,0,1,1.988-.342l-2.16,2.16H13.927Z" transform="translate(0 -331.493)" fill="#fff"/>
  </g>
</svg>
