<svg xmlns="http://www.w3.org/2000/svg" width="18.679" height="24.699" viewBox="0 0 18.679 24.699">
  <g id="clipboard" transform="translate(-63.658 0.3)">
    <g id="Group_55" data-name="Group 55" transform="translate(71.522 5.53)">
      <g id="Group_54" data-name="Group 54" transform="translate(0)">
        <g id="Group_47" data-name="Group 47">
          <g id="Group_45" data-name="Group 45" transform="translate(0 1.812)">
            <path id="Path_186" data-name="Path 186" d="M228.844,156.681H225.01a.353.353,0,0,1,0-.706h3.834a.353.353,0,0,1,0,.706Z" transform="translate(-224.657 -155.975)" fill="#727272" stroke="currentColor" stroke-width="0.6"/>
          </g>
          <g id="Group_46" data-name="Group 46">
            <path id="Path_187" data-name="Path 187" d="M232.677,118.184H225.01a.353.353,0,1,1,0-.706h7.667a.353.353,0,0,1,0,.706Z" transform="translate(-224.657 -117.478)" fill="#727272" stroke="currentColor" stroke-width="0.6"/>
          </g>
        </g>
        <g id="Group_50" data-name="Group 50" transform="translate(0 5.916)">
          <g id="Group_48" data-name="Group 48" transform="translate(0 1.812)">
            <path id="Path_188" data-name="Path 188" d="M228.844,282.368H225.01a.353.353,0,0,1,0-.706h3.834a.353.353,0,0,1,0,.706Z" transform="translate(-224.657 -281.662)" fill="#727272" stroke="currentColor" stroke-width="0.6"/>
          </g>
          <g id="Group_49" data-name="Group 49">
            <path id="Path_189" data-name="Path 189" d="M232.677,243.87H225.01a.353.353,0,0,1,0-.706h7.667a.353.353,0,0,1,0,.706Z" transform="translate(-224.657 -243.164)" fill="#727272" stroke="currentColor" stroke-width="0.6"/>
          </g>
        </g>
        <g id="Group_53" data-name="Group 53" transform="translate(0 11.832)">
          <g id="Group_51" data-name="Group 51" transform="translate(0 1.812)">
            <path id="Path_190" data-name="Path 190" d="M228.844,408.055H225.01a.353.353,0,1,1,0-.706h3.834a.353.353,0,0,1,0,.706Z" transform="translate(-224.657 -407.349)" fill="#727272" stroke="currentColor" stroke-width="0.6"/>
          </g>
          <g id="Group_52" data-name="Group 52">
            <path id="Path_191" data-name="Path 191" d="M232.677,369.557H225.01a.353.353,0,1,1,0-.706h7.667a.353.353,0,0,1,0,.706Z" transform="translate(-224.657 -368.851)" fill="#727272" stroke="currentColor" stroke-width="0.6"/>
          </g>
        </g>
      </g>
    </g>
    <g id="Group_56" data-name="Group 56" transform="translate(68.892 0)">
      <path id="Path_192" data-name="Path 192" d="M175.947,3.325h-6.105a1.054,1.054,0,0,1-1.052-1.052V1.052A1.054,1.054,0,0,1,169.842,0h6.105A1.054,1.054,0,0,1,177,1.052V2.273A1.054,1.054,0,0,1,175.947,3.325ZM169.842.706a.347.347,0,0,0-.346.346V2.273a.347.347,0,0,0,.346.346h6.105a.347.347,0,0,0,.346-.346V1.052a.347.347,0,0,0-.346-.346Z" transform="translate(-168.79 0)" fill="#727272" stroke="currentColor" stroke-width="0.6"/>
    </g>
    <g id="Group_60" data-name="Group 60" transform="translate(66.099 5.056)">
      <g id="Group_57" data-name="Group 57" transform="translate(0)">
        <path id="Path_193" data-name="Path 193" d="M111.965,110.888H110.4a.949.949,0,0,1-.948-.948v-1.569a.949.949,0,0,1,.948-.948h1.569a.949.949,0,0,1,.948.948v1.569A.949.949,0,0,1,111.965,110.888ZM110.4,108.13a.242.242,0,0,0-.242.242v1.569a.242.242,0,0,0,.242.242h1.569a.242.242,0,0,0,.242-.242v-1.569a.242.242,0,0,0-.242-.242Z" transform="translate(-109.448 -107.424)" fill="#727272" stroke="currentColor" stroke-width="0.6"/>
      </g>
      <g id="Group_58" data-name="Group 58" transform="translate(0 5.916)">
        <path id="Path_194" data-name="Path 194" d="M111.965,236.575H110.4a.949.949,0,0,1-.948-.948v-1.569a.949.949,0,0,1,.948-.948h1.569a.949.949,0,0,1,.948.948v1.569A.949.949,0,0,1,111.965,236.575Zm-1.569-2.758a.242.242,0,0,0-.242.242v1.569a.242.242,0,0,0,.242.242h1.569a.242.242,0,0,0,.242-.242v-1.569a.242.242,0,0,0-.242-.242Z" transform="translate(-109.448 -233.11)" fill="#727272" stroke="currentColor" stroke-width="0.6"/>
      </g>
      <g id="Group_59" data-name="Group 59" transform="translate(0 11.832)">
        <path id="Path_195" data-name="Path 195" d="M111.965,362.261H110.4a.949.949,0,0,1-.948-.948v-1.569a.949.949,0,0,1,.948-.948h1.569a.949.949,0,0,1,.948.948v1.569A.949.949,0,0,1,111.965,362.261ZM110.4,359.5a.242.242,0,0,0-.242.242v1.569a.242.242,0,0,0,.242.242h1.569a.242.242,0,0,0,.242-.242v-1.569a.242.242,0,0,0-.242-.242Z" transform="translate(-109.448 -358.796)" fill="#727272" stroke="currentColor" stroke-width="0.6"/>
      </g>
    </g>
    <g id="Group_61" data-name="Group 61" transform="translate(63.958 1.31)">
      <path id="Path_196" data-name="Path 196" d="M80.507,50.616H65.487a1.531,1.531,0,0,1-1.529-1.529V29.355a1.531,1.531,0,0,1,1.529-1.529H67.6a.353.353,0,1,1,0,.706H65.487a.824.824,0,0,0-.823.823V49.086a.824.824,0,0,0,.823.823h15.02a.824.824,0,0,0,.823-.823V29.355a.824.824,0,0,0-.823-.823H78.392a.353.353,0,1,1,0-.706h2.116a1.531,1.531,0,0,1,1.529,1.529V49.086A1.531,1.531,0,0,1,80.507,50.616Z" transform="translate(-63.958 -27.826)" fill="#727272" stroke="currentColor" stroke-width="0.6"/>
    </g>
  </g>
</svg>
