<svg id="save-file" xmlns="http://www.w3.org/2000/svg" width="18.01" height="18.01" viewBox="0 0 18.01 18.01">
  <g id="Group_519" data-name="Group 519" transform="translate(4.912 13.098)">
    <g id="Group_518" data-name="Group 518">
      <rect id="Rectangle_158" data-name="Rectangle 158" width="8.186" height="1.637" fill="currentColor"/>
    </g>
  </g>
  <g id="Group_521" data-name="Group 521" transform="translate(4.912 16.373)">
    <g id="Group_520" data-name="Group 520">
      <path id="Path_562" data-name="Path 562" d="M139.636,465.455v1.637h8.186v-1.637Z" transform="translate(-139.636 -465.455)" fill="currentColor"/>
    </g>
  </g>
  <g id="Group_523" data-name="Group 523" transform="translate(0)">
    <g id="Group_522" data-name="Group 522">
      <path id="Path_563" data-name="Path 563" d="M17.846,4.708,14.556.327A.819.819,0,0,0,13.9,0H12.552V6.822a.819.819,0,0,1-.819.819H4.093a.819.819,0,0,1-.819-.819V0H.819A.819.819,0,0,0,0,.819V17.191a.819.819,0,0,0,.819.819H3.275v-5.73a.819.819,0,0,1,.819-.819h9.824a.819.819,0,0,1,.819.819v5.73h2.456a.819.819,0,0,0,.819-.819V5.2A.819.819,0,0,0,17.846,4.708Z" transform="translate(0)" fill="currentColor"/>
    </g>
  </g>
  <g id="Group_525" data-name="Group 525" transform="translate(4.912)">
    <g id="Group_524" data-name="Group 524">
      <path id="Path_564" data-name="Path 564" d="M139.636,0V6h6V0Z" transform="translate(-139.636)" fill="currentColor"/>
    </g>
  </g>
</svg>
