<svg xmlns="http://www.w3.org/2000/svg" width="19.416" height="11.94" viewBox="0 0 19.416 11.94">
  <g id="Show_" data-name="Show " transform="translate(0.531 0.5)">
    <path id="Path_28" data-name="Path 28" d="M9.176,98.725c-3.507,0-6.686,1.918-9.033,5.035a.727.727,0,0,0,0,.867c2.346,3.12,5.526,5.038,9.033,5.038s6.686-1.918,9.033-5.035a.726.726,0,0,0,0-.867C15.863,100.643,12.683,98.725,9.176,98.725Zm.252,9.322a3.86,3.86,0,1,1,3.6-3.6A3.862,3.862,0,0,1,9.428,108.047Zm-.116-1.78a2.079,2.079,0,1,1,1.941-1.941A2.075,2.075,0,0,1,9.312,106.267Z" transform="translate(0 -98.725)" fill="none" stroke="currentColor" stroke-width="1"/>
  </g>
</svg>
