<svg xmlns="http://www.w3.org/2000/svg" width="16.22" height="24.33" viewBox="0 0 16.22 24.33">
  <g id="swap" transform="translate(-85.334 6.332) rotate(-90)">
    <path id="Path_167" data-name="Path 167" d="M3.464,91.416H15.209a1.014,1.014,0,1,0,0-2.027H3.464l2.324-2.324a1.014,1.014,0,0,0-1.434-1.434L.3,89.686c-.024.024-.046.048-.067.074s-.018.024-.027.036-.022.029-.032.044-.018.029-.027.044-.017.027-.024.041-.015.031-.022.046-.014.029-.02.044-.011.03-.017.045-.012.032-.017.048-.008.031-.012.046-.009.033-.012.05-.006.036-.008.054,0,.029-.006.044a1.02,1.02,0,0,0,0,.2c0,.015,0,.03.006.044s0,.036.008.054.008.033.012.05.007.031.012.046.011.032.017.048.01.031.017.045.013.029.02.044.014.031.022.046.016.027.024.041.017.03.027.044.021.029.032.044.017.024.027.036.043.05.067.074h0l4.055,4.055a1.014,1.014,0,0,0,1.434-1.434Z" transform="translate(-18)" fill="currentColor"/>
    <path id="Path_168" data-name="Path 168" d="M186.657,219.048c.01-.012.018-.024.027-.036s.022-.028.032-.043.018-.029.027-.044.017-.027.024-.041.015-.031.022-.046.014-.029.02-.044.011-.03.017-.045.012-.032.017-.048.008-.031.012-.046.009-.033.012-.05.006-.036.008-.054,0-.029.006-.044a1.02,1.02,0,0,0,0-.2c0-.015,0-.029-.006-.044s0-.036-.008-.054-.008-.033-.012-.05-.007-.031-.012-.046-.011-.032-.017-.048-.01-.031-.017-.045-.013-.029-.02-.044-.014-.031-.022-.046-.016-.027-.024-.041-.017-.03-.027-.044-.021-.029-.032-.043-.018-.025-.027-.036-.043-.05-.066-.073h0l-4.055-4.055a1.014,1.014,0,0,0-1.434,1.434l2.324,2.324H171.681a1.014,1.014,0,0,0,0,2.027h11.745l-2.324,2.324a1.014,1.014,0,0,0,1.434,1.434l4.055-4.055h0Q186.626,219.086,186.657,219.048Z" transform="translate(-180.555 -121.92)" fill="currentColor"/>
  </g>
</svg>
