<svg id="تغییر_واحد_پول" data-name="تغییر واحد پول" xmlns="http://www.w3.org/2000/svg" width="19.721" height="19.721" viewBox="0 0 19.721 19.721">
  <path id="Path_48" data-name="Path 48" d="M177.243,114.473a2.839,2.839,0,0,0-2.794-2.876h-.985a1.235,1.235,0,0,1,0-2.465h2.958a.822.822,0,1,0,0-1.643h-1.643a.822.822,0,0,0-1.643,0v.034a2.874,2.874,0,0,0,.329,5.718h.985a1.235,1.235,0,0,1,0,2.465h-2.958a.822.822,0,0,0,0,1.643h1.643a.822.822,0,0,0,1.643,0v-.034A2.842,2.842,0,0,0,177.243,114.473Z" transform="translate(-164.095 -102.558)" fill="#b1b1b1"/>
  <path id="Path_49" data-name="Path 49" d="M248.436.374,248.36.351A9.872,9.872,0,0,0,245.745,0a.411.411,0,0,0-.295.7l2.174,2.242a.411.411,0,0,0,.295.125.411.411,0,0,0,.4-.34l.108-.623a8.233,8.233,0,0,1,5.2,10.075,8.374,8.374,0,0,1-5.926,5.658l-.213.057a.411.411,0,0,0-.29.5l.214.793a.411.411,0,0,0,.5.29l.1-.027a10.132,10.132,0,0,0,7.391-7.648A9.888,9.888,0,0,0,248.436.374Z" transform="translate(-235.885 0)" fill="#b1b1b1"/>
  <path id="Path_50" data-name="Path 50" d="M7.982,22.5a.411.411,0,0,0-.295-.125.411.411,0,0,0-.4.34l-.108.623a8.233,8.233,0,0,1-5.2-10.075A8.374,8.374,0,0,1,7.9,7.609l.213-.057a.411.411,0,0,0,.29-.5L8.19,6.255a.411.411,0,0,0-.5-.29l-.1.027A10.133,10.133,0,0,0,.194,13.64,9.888,9.888,0,0,0,7.171,25.069l.076.023a9.871,9.871,0,0,0,2.615.351.411.411,0,0,0,.295-.7Z" transform="translate(-0.001 -5.722)" fill="#b1b1b1"/>
</svg>
