<?xml version="1.0" encoding="UTF-8"?>
<!DOCTYPE svg PUBLIC "-//W3C//DTD SVG 1.1//EN" "http://www.w3.org/Graphics/SVG/1.1/DTD/svg11.dtd">
<!-- Creator: CorelDRAW 2019 (64-Bit) -->
<svg xmlns="http://www.w3.org/2000/svg" xml:space="preserve" width="3.93701in" height="3.93701in" version="1.1" style="shape-rendering:geometricPrecision; text-rendering:geometricPrecision; image-rendering:optimizeQuality; fill-rule:evenodd; clip-rule:evenodd"
viewBox="0 0 3937.01 3937.01"
 xmlns:xlink="http://www.w3.org/1999/xlink">
 <defs>
  <style type="text/css">
   <![CDATA[
    .str1 {stroke:#1890FF;stroke-width:83.33;stroke-miterlimit:2.61313}
    .str2 {stroke:#1890FF;stroke-width:83.33;stroke-linecap:round;stroke-linejoin:round;stroke-miterlimit:2.61313}
    .str0 {stroke:#006D75;stroke-width:116.67;stroke-linecap:round;stroke-linejoin:round;stroke-miterlimit:2.61313}
    .fil1 {fill:none}
    .fil2 {fill:#006D75}
    .fil0 {fill:#F5FCFF}
   ]]>
  </style>
    <clipPath id="id0">
     <path d="M3551.18 2394.36l-1063.41 1063.41c-65.89,65.9 -85.85,73.12 -177.59,-18.63 -493.34,-493.34 -986.7,-986.7 -1480.04,-1480.04 -44.53,-47.34 -66.83,-107.04 -72.88,-175.78l-98.81 -1107.78c-11.43,-128.16 -8.02,-130.14 118.03,-118.89 369.21,32.96 738.44,65.85 1107.67,98.77 79.54,3.58 139.59,26.35 176.05,72.3 493.46,493.46 986.92,986.92 1480.38,1480.38 77.06,61.93 77.17,124.01 10.6,186.26z"/>
    </clipPath>
 </defs>
 <g id="Layer_x0020_1">
  <metadata id="CorelCorpID_0Corel-Layer"/>
  <g id="_1796860806976">
   <g>
   </g>
   <g style="clip-path:url(#id0)">
    <g id="_1796860810336">
     <rect class="fil0" transform="matrix(4.84523 -4.84523 4.84523 4.84523 1155.73 2935.86)" width="338.89" height="297.22"/>
    </g>
   </g>
   <path class="fil1 str0" d="M3551.18 2394.36l-1063.41 1063.41c-65.89,65.9 -85.85,73.12 -177.59,-18.63 -493.34,-493.34 -986.7,-986.7 -1480.04,-1480.04 -44.53,-47.34 -66.83,-107.04 -72.88,-175.78l-98.81 -1107.78c-11.43,-128.16 -8.02,-130.14 118.03,-118.89 369.21,32.96 738.44,65.85 1107.67,98.77 79.54,3.58 139.59,26.35 176.05,72.3 493.46,493.46 986.92,986.92 1480.38,1480.38 77.06,61.93 77.17,124.01 10.6,186.26z"/>
   <circle class="fil2" cx="1258.14" cy="1157.93" r="225.15"/>
   <line class="fil1 str1" x1="1450.06" y1="2243.52" x2="2320.76" y2= "1372.81" />
   <line class="fil1 str1" x1="1677.26" y1="2483.31" x2="2547.96" y2= "1612.59" />
   <path class="fil1 str2" d="M2813.59 2006.56c0,0 -81.78,-17.53 -75.95,84.7 5.83,102.23 5.83,102.23 5.83,102.23 0,0 26.32,160.65 -166.48,157.74 -192.8,-2.91 -182.57,4.37 -185.49,173.79 -2.92,169.42 -189.87,135.83 -189.87,135.83 0,0 -200.11,-45.26 -135.83,96.4"/>
  </g>
 </g>
</svg>
