<?xml version="1.0" encoding="UTF-8"?>
<!DOCTYPE svg PUBLIC "-//W3C//DTD SVG 1.1//EN" "http://www.w3.org/Graphics/SVG/1.1/DTD/svg11.dtd">
<!-- Creator: CorelDRAW 2019 (64-Bit) -->
<svg xmlns="http://www.w3.org/2000/svg" xml:space="preserve" width="3.93701in" height="3.93701in" version="1.1" style="shape-rendering:geometricPrecision; text-rendering:geometricPrecision; image-rendering:optimizeQuality; fill-rule:evenodd; clip-rule:evenodd"
viewBox="0 0 3937.01 3937.01"
 xmlns:xlink="http://www.w3.org/1999/xlink">
 <defs>
  <style type="text/css">
   <![CDATA[
    .fil0 {fill:#1890FF}
    .fil1 {fill:#F3F3F3}
   ]]>
  </style>
 </defs>
 <g id="Layer_x0020_1">
  <metadata id="CorelCorpID_0Corel-Layer"/>
  <circle class="fil0" cx="1967.01" cy="1970" r="1968.5"/>
  <path class="fil1" d="M1712 2320.36l-451.96 -373.4c-49.04,-37.73 -92.29,-95.64 -172.19,-106.59 -44.55,-6.1 -82.94,-3 -121.91,15.31 -93.35,43.87 -149.58,157.05 -105.44,268.35 30.16,76.03 180.3,178.1 249.83,236.46 19.15,16.07 22.89,23.19 43.01,39.65l455.93 377.9c223.4,174.19 342.98,-44.12 429.77,-141.51l456.96 -528.32c30.41,-40.13 27.15,-33.72 64.44,-74.44l446.14 -526.71c46.46,-59.06 88.02,-86.73 81.56,-194.46 -8.68,-144.82 -169.23,-279.84 -334.91,-183.52 -54.44,31.65 -100.53,98.54 -136.26,141.75 -149.15,180.39 -535.43,605.59 -641.17,747.28l-263.81 302.27z"/>
 </g>
</svg>
