<?xml version="1.0" encoding="UTF-8"?>
<!DOCTYPE svg PUBLIC "-//W3C//DTD SVG 1.1//EN" "http://www.w3.org/Graphics/SVG/1.1/DTD/svg11.dtd">
<!-- Creator: CorelDRAW 2019 (64-Bit) -->
<svg xmlns="http://www.w3.org/2000/svg" xml:space="preserve" width="3.93701in" height="2.3622in" version="1.1" style="shape-rendering:geometricPrecision; text-rendering:geometricPrecision; image-rendering:optimizeQuality; fill-rule:evenodd; clip-rule:evenodd"
viewBox="0 0 3937.01 2362.2"
 xmlns:xlink="http://www.w3.org/1999/xlink">
 <defs>
  <style type="text/css">
   <![CDATA[
    .str1 {stroke:#FEFEFE;stroke-width:27.78;stroke-miterlimit:2.61313}
    .str0 {stroke:#96989A;stroke-width:27.78;stroke-miterlimit:2.61313}
    .str2 {stroke:#FEFEFE;stroke-width:27.78;stroke-linecap:round;stroke-miterlimit:2.61313}
    .str3 {stroke:#96989A;stroke-width:27.78;stroke-linecap:round;stroke-miterlimit:2.61313}
    .str4 {stroke:#96989A;stroke-width:27.78;stroke-linecap:round;stroke-linejoin:round;stroke-miterlimit:2.61313}
    .str5 {stroke:#96989A;stroke-width:27.78;stroke-miterlimit:2.61313;stroke-dasharray:55.559055 138.897638}
    .fil0 {fill:none}
    .fil1 {fill:#1890FF}
    .fil2 {fill:#1890FF}
   ]]>
  </style>
 </defs>
 <g id="Layer_x0020_1">
  <metadata id="CorelCorpID_0Corel-Layer"/>
  <g id="_3024290132208">
   <g>
    <circle class="fil0 str0" cx="1396.43" cy="327.52" r="302.08"/>
    <path class="fil0 str0" d="M1391.2 488.1l0 -72.05c0,0 -2.17,-24.74 24.74,-24.74l82.9 0c0,0 55.34,1.3 55.34,55.34l0 47.53"/>
    <path class="fil0 str0" d="M1217.59 498.52l0 -72.05c0,0 -2.17,-24.74 24.74,-24.74l60.32 0 3.96 -223.98c0,0 -4.28,-58.36 73.09,-58.36l84.73 0.08c0,0 60.88,-4.09 60.88,55.81l0 85.5c0,0 -3.91,67.28 -52.95,67.28 -49.04,0 -75.92,0 -75.92,0"/>
    <path class="fil0 str0" d="M1374.48 260.64l0 -50.94c0,-23.12 18.91,-42.02 42.02,-42.02l50.94 0"/>
   </g>
   <g>
    <circle class="fil0 str0" cx="3129.02" cy="383.96" r="302.08"/>
    <path class="fil0 str0" d="M3123.79 544.54l0 -72.05c0,0 -2.17,-24.74 24.74,-24.74l82.9 0c0,0 55.34,1.3 55.34,55.34l0 47.53"/>
    <path class="fil0 str0" d="M2950.18 554.95l0 -72.05c0,0 -2.17,-24.74 24.74,-24.74l60.32 0 3.96 -223.98c0,0 -4.28,-58.36 73.09,-58.36l84.73 0.08c0,0 60.88,-4.09 60.88,55.81l0 85.5c0,0 -3.91,67.28 -52.95,67.28 -49.04,0 -75.92,0 -75.92,0"/>
    <path class="fil0 str0" d="M3107.07 317.07l0 -50.94c0,-23.12 18.91,-42.02 42.02,-42.02l50.94 0"/>
   </g>
   <g>
    <circle class="fil0 str0" cx="3561.31" cy="1627.88" r="302.08"/>
    <path class="fil0 str0" d="M3556.07 1788.46l0 -72.05c0,0 -2.17,-24.74 24.74,-24.74l82.9 0c0,0 55.34,1.3 55.34,55.34l0 47.53"/>
    <path class="fil0 str0" d="M3382.46 1798.87l0 -72.05c0,0 -2.17,-24.74 24.74,-24.74l60.32 0 3.96 -223.98c0,0 -4.28,-58.36 73.09,-58.36l84.73 0.08c0,0 60.88,-4.09 60.88,55.81l0 85.5c0,0 -3.91,67.28 -52.95,67.28 -49.04,0 -75.92,0 -75.92,0"/>
    <path class="fil0 str0" d="M3539.35 1561l0 -50.94c0,-23.12 18.91,-42.02 42.02,-42.02l50.94 0"/>
   </g>
   <circle class="fil1" cx="2513.56" cy="1438.32" r="249.13"/>
   <circle class="fil0 str1" cx="2513.56" cy="1438.32" r="180.56"/>
   <polyline class="fil0 str2" points="2501.62,1343.7 2501.62,1456.98 2552.4,1514.28 "/>
   <path class="fil0 str0" d="M2219.89 1423.14l-221.28 0c-10.99,0 -20,-9 -20,-20l0 -204.82m0 -135.43l0 -225.23c0,-11 9,-20 20,-20l456.53 0c11,0 20,9 20,20l0 312.9"/>
   <path class="fil0 str0" d="M1958.7 1709.28l-241.69 0c-11,0 -20,-9 -20,-20l0 -563.75c0,-11 9,-20 20,-20l241.69 0c11,0 20,9 20,20l0 176.17"/>
   <path class="fil0 str0" d="M1921.88 1709.28l241.69 0c11,0 20,-9 20,-20l0 -196.56"/>
   <line class="fil0 str3" x1="2288.08" y1="962.09" x2="2094.94" y2= "962.09" />
   <line class="fil0 str3" x1="2288.08" y1="1056.93" x2="2094.94" y2= "1056.93" />
   <line class="fil0 str3" x1="2326.71" y1="962.09" x2="2387.04" y2= "962.09" />
   <line class="fil0 str3" x1="2326.71" y1="1056.93" x2="2387.04" y2= "1056.93" />
   <line class="fil0 str3" x1="2288.08" y1="1158.06" x2="2094.94" y2= "1158.06" />
   <line class="fil0 str3" x1="2326.71" y1="1158.06" x2="2387.04" y2= "1158.06" />
   <line class="fil0 str3" x1="2288.08" y1="1253.11" x2="2094.94" y2= "1253.11" />
   <line class="fil0 str3" x1="1795.24" y1="1284.15" x2="1905.26" y2= "1284.15" />
   <line class="fil0 str3" x1="1795.24" y1="1378.98" x2="1905.26" y2= "1378.98" />
   <line class="fil0 str3" x1="1795.24" y1="1480.11" x2="1905.26" y2= "1480.11" />
   <line class="fil0 str3" x1="1795.24" y1="1576.9" x2="1905.26" y2= "1576.9" />
   <path class="fil0 str0" d="M1244.33 1892.44l381.36 0c22,0 36.19,18 31.54,40l-59.06 279.37c-4.65,22 -26.45,40 -48.45,40l-421.36 0 67.52 -319.37c4.65,-22 26.46,-40 48.45,-40z"/>
   <path class="fil0 str3" d="M1452.54 2333.85l-540.3 0c-11,0 -20,-9 -20,-20l0 -46.37c0,-11 9,-20 20,-20l183.56 0"/>
   <path class="fil0 str4" d="M791.98 2214.48l0 95.67c0,17.09 -13.98,31.07 -31.07,31.07l-619.22 0c-39.09,0 -71.07,-31.98 -71.07,-71.07l0 -231.89c0,-72.09 58.98,-131.07 131.07,-131.07"/>
   <path class="fil0 str4" d="M234.69 1853.38l0 -481.46c0,-99 81,-180 180,-180l225.94 0c99,0 180,81 180,180l0 223.33c0,98.99 -81.01,180 -180,180l-195 0"/>
   <path class="fil0 str4" d="M234.47 1792.4l0 75.02c0,22 -18,40 -40,40"/>
   <path class="fil0 str4" d="M249.2 2038.78l0 75.02c0,22 18,40 40,40 22,0 512.96,0 512.96,0l168.84 -59.1c0,0 88.55,67.27 99.83,139.32"/>
   <path class="fil0 str4" d="M478.81 1902.41l89.41 161.89 105.47 -158.85 128.47 0c0,0 139.33,44.28 115.89,159.72"/>
   <path class="fil0 str4" d="M925.18 2170.73c4.19,-1.06 8.5,-1.6 12.83,-1.6 28.89,0 52.3,23.41 52.3,52.3 0,6.72 -1.3,13.39 -3.82,19.62"/>
   <path class="fil0 str4" d="M644.84 1625.11l91.77 -1.16c-0.1,39.25 -39.5,71.92 -89.01,73.8 -50.66,1.93 -92.96,-29.04 -94.49,-69.16 -0.05,-1.35 -0.06,-2.71 -0.01,-4.06l91.74 0.57z"/>
   <path class="fil0 str4" d="M665.87 1595.25l0 -121.39c0,-16.5 13.5,-30 30,-30l124.76 0"/>
   <path class="fil0 str4" d="M396.33 1617.47c-98.69,-5.1 -94,-141.54 -8.25,-167.97 0.58,-48.9 1.16,-97.8 1.74,-146.7 92.08,66.32 273.46,74.45 361.55,-1.3"/>
   <ellipse class="fil2" cx="1401.31" cy="2073.2" rx="59.68" ry="58.16"/>
   <line class="fil0 str5" x1="1598.13" y1="1378.76" x2="1060.8" y2= "1713.83" />
   <line class="fil0 str5" x1="1777.8" y1="879.68" x2="1618.96" y2= "665.06" />
   <line class="fil0 str5" x1="2560.5" y1="817.33" x2="2785.04" y2= "672.83" />
   <line class="fil0 str5" x1="2832.12" y1="1210.1" x2="3177.97" y2= "1425.65" />
  </g>
 </g>
</svg>
