<?xml version="1.0" standalone="no"?>
<!DOCTYPE svg PUBLIC "-//W3C//DTD SVG 20010904//EN"
 "http://www.w3.org/TR/2001/REC-SVG-20010904/DTD/svg10.dtd">
<svg version="1.0" xmlns="http://www.w3.org/2000/svg"
 width="700.000000pt" height="700.000000pt" viewBox="0 0 700.000000 700.000000"
 preserveAspectRatio="xMidYMid meet">
<metadata>
Created by potrace 1.14, written by Peter Selinger 2001-2017
</metadata>
<g transform="translate(0.000000,700.000000) scale(0.100000,-0.100000)"
fill="#000000" stroke="none">
<path d="M3490 6260 c-7 -16 -23 -41 -36 -55 -13 -15 -21 -32 -18 -38 4 -7 4
-9 0 -6 -10 9 -58 -40 -50 -52 3 -5 0 -17 -8 -26 -15 -18 -20 -73 -6 -73 5 0
6 -10 2 -22 -3 -13 -3 -20 0 -17 4 4 20 -5 35 -20 45 -41 56 -48 68 -44 6 2
14 -1 18 -6 4 -7 13 -8 23 -2 9 4 25 7 34 6 9 -2 25 5 35 14 10 10 26 17 36
15 9 -1 15 2 12 6 -3 5 0 12 6 15 5 4 8 13 5 21 -3 7 0 17 7 21 13 8 19 73 7
73 -6 0 -16 31 -20 65 0 2 -13 17 -28 32 -43 45 -92 105 -92 115 0 19 -18 6
-30 -22z"/>
<path d="M3213 5631 c-9 -11 -20 -18 -25 -15 -8 5 -24 -29 -32 -69 -7 -34 -18
-60 -33 -79 -8 -9 -22 -32 -32 -50 -16 -32 -16 -34 9 -70 14 -21 30 -37 37
-38 6 0 14 -9 18 -20 3 -11 9 -19 13 -18 4 1 16 -3 27 -9 11 -6 31 -13 45 -14
14 -2 28 -8 31 -12 3 -5 12 -10 20 -11 13 -3 23 -6 67 -23 9 -3 33 -7 52 -9
19 -1 35 -3 35 -4 0 -1 31 -4 69 -6 50 -2 74 1 92 13 13 8 24 11 24 5 0 -11
18 -11 38 2 7 4 25 9 39 11 14 1 28 7 32 12 3 5 13 8 21 8 8 -1 23 5 33 13 9
8 17 12 17 8 0 -4 18 6 39 23 21 17 43 31 48 31 18 0 43 41 48 82 5 36 1 50
-25 91 -16 26 -30 51 -30 55 0 4 -20 20 -45 35 -25 16 -45 33 -45 37 0 5 -13
8 -30 8 -16 -1 -27 -5 -24 -9 3 -5 -6 -5 -20 1 -21 7 -26 6 -26 -5 0 -8 -10
-16 -22 -16 -13 -1 -30 -2 -39 -3 -8 -1 -23 -8 -32 -17 -8 -9 -26 -16 -39 -15
-13 1 -26 -3 -30 -9 -5 -6 -8 -2 -8 9 0 15 -3 16 -15 6 -12 -10 -18 -10 -30 0
-12 10 -15 10 -15 0 0 -8 -4 -9 -12 -3 -7 5 -20 9 -28 8 -8 0 -21 6 -29 13 -8
7 -21 12 -30 9 -9 -2 -22 1 -28 7 -29 26 -39 32 -52 28 -8 -3 -11 0 -7 6 3 6
2 13 -4 17 -5 3 -10 1 -10 -6 0 -10 -3 -10 -12 -1 -17 17 -26 15 -45 -7z"/>
<path d="M2236 5262 c-3 -3 -6 -16 -6 -29 0 -12 -4 -23 -8 -23 -11 0 -12 -33
-1 -40 5 -3 9 -34 10 -68 1 -37 6 -62 13 -62 6 0 4 -4 -4 -10 -12 -7 -9 -16
16 -52 17 -24 29 -49 27 -55 -3 -7 2 -13 11 -13 9 0 16 -4 16 -10 0 -5 7 -10
15 -10 8 0 15 -5 15 -11 0 -5 5 -7 10 -4 9 6 14 -7 11 -27 0 -4 12 -7 27 -7
40 1 79 -6 94 -18 7 -6 30 -13 51 -17 20 -4 37 -11 37 -16 0 -5 9 -7 20 -5 11
2 20 -1 20 -7 0 -6 3 -9 6 -5 4 3 19 0 35 -9 16 -8 29 -12 29 -8 0 4 6 1 14
-5 8 -7 24 -14 37 -16 12 -3 25 -8 28 -12 7 -9 26 -14 58 -17 13 0 23 -4 23
-8 0 -5 7 -8 15 -8 8 0 15 -4 15 -9 0 -8 56 -25 73 -22 4 0 7 -4 7 -10 0 -6 7
-9 15 -5 9 3 15 0 15 -9 0 -18 20 -20 20 -2 0 6 5 4 11 -6 6 -9 16 -14 22 -11
7 4 9 4 5 -1 -13 -14 13 -37 27 -25 9 8 18 6 31 -7 10 -10 20 -18 23 -18 3 -1
16 -6 29 -13 12 -7 26 -10 31 -8 5 3 12 -1 15 -10 4 -9 9 -14 12 -12 3 3 37
-12 76 -33 39 -21 77 -39 84 -39 7 0 14 -3 16 -7 2 -5 23 -18 48 -30 45 -23
140 -29 140 -10 0 5 6 7 14 4 8 -3 22 1 33 8 10 8 26 15 35 15 9 0 18 5 20 11
2 5 11 11 21 13 10 1 27 10 37 19 11 9 20 13 20 9 0 -4 4 -2 8 3 4 6 28 20 53
33 26 12 52 29 59 37 6 7 18 11 26 8 8 -3 14 -1 14 5 0 6 14 13 30 17 17 4 30
11 30 16 0 5 13 7 30 5 20 -2 30 1 30 10 0 15 1 15 45 18 24 1 29 5 27 21 -2
16 -1 17 7 5 8 -12 13 -11 31 5 11 10 31 20 43 22 12 2 24 8 25 13 2 6 8 7 13
4 6 -3 16 0 24 6 8 6 19 9 25 5 5 -3 10 -1 10 4 0 6 11 11 24 11 13 0 26 5 28
11 2 6 16 12 31 12 15 1 27 5 27 8 0 4 12 10 28 14 15 5 32 10 37 11 6 2 19 5
30 6 11 2 22 6 25 10 3 4 15 9 25 11 23 5 54 15 75 26 8 4 23 7 33 5 10 -1 17
4 18 14 0 11 2 12 6 5 6 -17 23 -17 23 0 0 18 65 79 74 70 5 -5 5 2 2 14 -4
12 -2 24 4 28 5 3 10 14 10 23 0 9 6 28 13 42 8 14 14 42 14 61 0 20 3 41 7
47 4 7 4 17 0 24 -5 7 -7 25 -6 41 2 22 -1 28 -12 24 -7 -3 -18 -1 -24 5 -7 7
-25 8 -49 3 -43 -10 -51 -11 -58 -15 -6 -3 -10 -4 -50 -14 -16 -4 -51 -16 -77
-27 -26 -10 -56 -19 -67 -19 -11 0 -26 -6 -33 -12 -7 -7 -24 -15 -38 -17 -14
-1 -28 -8 -32 -15 -4 -6 -8 -7 -8 -2 0 4 -11 1 -24 -7 -13 -9 -33 -14 -45 -12
-11 2 -28 -3 -36 -11 -8 -9 -19 -12 -25 -9 -5 3 -10 2 -10 -3 0 -5 -14 -12
-31 -16 -16 -3 -37 -13 -45 -21 -9 -8 -19 -13 -24 -10 -5 3 -11 1 -15 -5 -4
-6 -11 -8 -16 -5 -5 4 -9 1 -9 -5 0 -7 -6 -10 -12 -7 -7 2 -21 -2 -30 -11 -11
-9 -18 -11 -18 -4 0 6 -23 -2 -50 -18 -28 -17 -60 -30 -70 -30 -11 0 -20 -7
-20 -15 0 -8 -3 -14 -7 -13 -13 2 -67 -14 -80 -24 -24 -19 -86 -47 -93 -43 -5
3 -11 -2 -14 -11 -3 -8 -10 -12 -16 -9 -5 3 -10 1 -10 -6 0 -7 -10 -9 -24 -7
-18 4 -26 0 -29 -14 -5 -17 -8 -17 -26 -7 -15 10 -25 10 -43 1 -30 -16 -68
-12 -69 8 0 10 -2 11 -6 3 -2 -7 -12 -13 -20 -13 -9 0 -13 6 -9 15 6 17 -5 20
-20 5 -7 -7 -20 -3 -40 12 -15 13 -29 21 -29 19 0 -6 -155 71 -161 81 -3 4 -9
6 -14 3 -5 -3 -15 3 -22 12 -7 10 -25 19 -40 20 -15 1 -42 13 -60 26 -20 14
-44 23 -61 21 -15 -2 -25 1 -22 7 4 5 -1 9 -9 9 -9 0 -16 5 -16 11 0 8 -5 8
-15 -1 -12 -10 -15 -9 -15 5 0 13 -6 16 -21 12 -13 -3 -28 2 -39 13 -13 13
-22 16 -26 8 -4 -7 -10 -5 -16 5 -5 10 -15 14 -25 10 -11 -5 -14 -3 -8 6 5 10
2 11 -13 7 -14 -5 -24 -1 -31 11 -6 10 -11 13 -11 7 0 -8 -10 -8 -34 0 -19 6
-32 14 -30 18 5 8 0 9 -45 12 -11 0 -23 4 -27 9 -4 4 -17 7 -30 7 -12 0 -24 5
-26 10 -2 6 -18 11 -36 13 -17 1 -32 5 -32 10 0 4 -7 7 -15 7 -8 0 -15 5 -15
11 0 5 -4 8 -9 4 -5 -3 -12 -1 -16 5 -3 5 -16 8 -28 6 -12 -2 -33 2 -47 9 -30
15 -86 26 -94 17z"/>
<path d="M2413 4482 c-16 -10 -26 -52 -13 -52 7 0 8 -6 1 -19 -6 -10 -7 -22
-3 -25 7 -8 12 -46 13 -114 0 -23 7 -49 16 -57 8 -8 13 -20 11 -27 -4 -12 71
-90 112 -118 12 -8 28 -21 36 -27 7 -7 17 -13 22 -13 5 0 29 -8 53 -19 72 -30
83 -34 95 -32 7 1 14 -6 18 -14 3 -9 11 -13 16 -10 6 4 27 -3 46 -14 19 -12
41 -21 48 -21 8 0 19 -7 26 -15 7 -8 16 -13 20 -10 5 3 21 0 37 -7 15 -6 33
-12 38 -13 6 0 9 -5 8 -11 -1 -5 10 -11 25 -12 14 -1 30 -9 35 -17 4 -9 12
-13 18 -10 5 4 9 1 9 -5 0 -6 4 -9 10 -5 5 3 18 -3 29 -14 11 -11 22 -17 25
-14 3 4 6 -2 6 -11 0 -12 5 -16 16 -12 16 6 98 -43 122 -73 7 -9 17 -16 21
-16 5 0 28 -12 51 -27 23 -16 48 -28 55 -28 8 0 18 -6 22 -12 9 -15 53 -19 53
-6 0 5 5 6 10 3 6 -3 10 -2 10 3 0 6 9 8 20 5 11 -3 31 2 45 11 18 12 25 13
25 4 1 -7 9 -3 20 10 10 13 28 25 39 27 11 2 33 15 48 29 16 15 36 29 46 32 9
3 17 10 17 15 0 5 9 9 19 9 10 0 22 7 25 16 3 8 10 13 14 10 5 -3 18 1 28 9
10 8 27 15 36 15 10 0 23 9 30 20 7 11 18 20 25 20 7 0 13 6 13 13 0 8 3 7 10
-3 8 -12 10 -12 16 3 3 9 14 17 24 17 10 0 41 16 70 35 29 19 60 35 69 35 9 0
25 6 36 13 11 7 30 12 43 11 12 -1 22 3 22 7 0 5 7 9 15 9 8 0 15 5 15 12 0 6
3 8 7 5 3 -4 13 -1 21 6 13 10 14 9 7 -3 -8 -13 -6 -13 8 -2 9 8 21 11 26 8 5
-4 12 -2 16 3 3 6 26 20 50 32 25 12 45 26 45 31 0 4 3 7 8 6 9 -3 72 58 72
70 0 5 7 15 15 22 9 7 13 15 10 18 -3 3 2 13 11 23 9 10 14 25 11 33 -3 8 -1
16 4 18 16 5 31 181 18 214 -4 10 -8 15 -8 9 -1 -5 -15 -11 -33 -11 -18 -1
-34 -6 -36 -13 -2 -6 -8 -9 -13 -5 -5 3 -9 0 -9 -6 0 -6 -4 -9 -9 -5 -5 3 -13
1 -16 -5 -5 -8 -11 -7 -21 1 -10 8 -14 8 -14 0 0 -6 -8 -11 -19 -11 -10 0 -24
-7 -31 -15 -7 -8 -18 -14 -24 -13 -6 1 -20 -3 -31 -9 -11 -6 -24 -11 -30 -12
-26 -3 -75 -24 -75 -32 0 -5 -3 -8 -7 -8 -25 4 -53 -2 -48 -11 5 -8 -39 -16
-67 -11 -5 0 -8 -6 -8 -14 0 -16 -20 -16 -32 0 -5 6 -8 3 -8 -7 0 -20 -35 -42
-56 -34 -8 3 -14 -1 -14 -9 0 -14 -12 -19 -32 -16 -5 0 -8 -3 -8 -8 0 -4 -12
-8 -27 -7 -18 1 -27 -4 -25 -12 2 -10 -4 -11 -19 -7 -14 5 -19 3 -15 -4 4 -6
-4 -13 -18 -17 -13 -3 -27 -12 -30 -20 -3 -7 -12 -11 -21 -8 -8 3 -15 2 -15
-2 0 -5 -21 -20 -47 -33 -27 -13 -64 -35 -84 -48 -20 -13 -49 -25 -65 -26 -16
-1 -32 -6 -36 -11 -3 -5 -31 -11 -62 -12 -43 -2 -56 0 -56 12 0 17 -12 18 -28
2 -9 -9 -12 -9 -12 0 0 7 -6 12 -12 11 -18 -3 -78 21 -78 31 0 4 -15 14 -32
21 -18 7 -39 19 -46 26 -7 7 -19 13 -27 13 -7 0 -15 7 -19 15 -3 9 -18 15 -36
15 -17 0 -29 4 -26 8 3 4 -15 17 -40 28 -24 10 -44 23 -44 28 0 4 -9 6 -21 3
-12 -3 -22 0 -26 9 -3 8 -13 14 -23 14 -10 0 -25 7 -33 15 -8 8 -18 11 -22 7
-3 -4 -13 2 -21 12 -10 14 -14 16 -14 5 0 -12 -2 -12 -10 1 -5 8 -10 12 -10 7
0 -4 -10 -1 -23 8 -13 8 -27 12 -30 9 -4 -4 -9 1 -13 10 -3 9 -17 16 -29 16
-13 0 -27 5 -30 10 -4 6 -11 8 -16 5 -5 -4 -9 -1 -9 4 0 6 -8 11 -18 11 -10 0
-27 6 -37 14 -10 7 -26 11 -35 9 -9 -2 -22 3 -29 11 -8 9 -22 16 -32 16 -9 0
-24 6 -31 13 -13 13 -21 16 -73 20 -14 1 -25 5 -25 8 0 11 -26 18 -37 11z"/>
<path d="M1536 4351 c-8 -15 -12 -31 -9 -34 3 -4 -2 -9 -11 -13 -9 -3 -14 -10
-11 -14 6 -9 -35 -112 -48 -121 -5 -4 -6 -12 -3 -18 4 -6 2 -11 -4 -11 -6 0
-9 -4 -6 -9 3 -4 -4 -17 -15 -27 -11 -10 -17 -24 -15 -31 3 -7 0 -13 -6 -13
-6 0 -9 -3 -5 -6 3 -4 -9 -22 -28 -40 -19 -19 -35 -38 -35 -43 0 -17 -32 -42
-46 -37 -8 3 -14 1 -14 -5 0 -6 -5 -7 -10 -4 -6 3 -13 0 -16 -9 -3 -8 -12 -12
-20 -9 -8 3 -22 -1 -31 -8 -14 -12 -16 -12 -8 1 6 12 5 13 -5 3 -8 -8 -19 -9
-30 -3 -9 5 -46 10 -83 12 -47 2 -67 7 -67 16 0 10 -5 10 -20 2 -11 -6 -20 -7
-20 -3 0 4 -11 13 -25 20 -14 6 -25 7 -25 2 0 -14 -17 -11 -33 6 -8 8 -17 11
-21 8 -3 -4 -6 -1 -6 5 0 7 -9 12 -20 12 -11 0 -20 -6 -20 -12 0 -10 -3 -9 -9
1 -5 7 -13 11 -19 7 -5 -3 -13 1 -16 10 -5 12 -10 13 -19 6 -8 -7 -18 -7 -27
-2 -10 7 -11 10 -2 10 6 0 12 5 12 10 0 13 -37 13 -45 0 -5 -7 -11 -8 -19 -1
-6 5 -24 11 -39 13 -16 3 -33 11 -38 19 -5 8 -9 9 -9 3 0 -6 -7 -11 -15 -11
-8 0 -15 4 -15 9 0 4 -3 7 -7 6 -5 0 -15 1 -23 5 -16 6 -66 17 -87 19 -7 1
-13 5 -13 10 0 5 -16 8 -35 6 -37 -2 -94 -51 -75 -63 13 -8 13 -45 0 -45 -14
0 -12 -26 3 -42 8 -7 12 -27 10 -45 -4 -28 -1 -32 17 -28 11 2 18 0 15 -4 -2
-5 8 -17 23 -27 27 -18 38 -22 79 -26 13 -1 25 -8 28 -16 3 -7 10 -10 15 -7
20 12 89 12 94 0 5 -14 152 -15 174 -2 8 5 12 2 12 -9 0 -16 1 -16 19 0 13 12
20 14 23 5 3 -10 67 -17 201 -20 9 0 17 -3 17 -7 0 -4 17 -8 38 -9 65 -4 134
-13 145 -20 5 -3 28 -7 51 -9 61 -5 66 -7 66 -16 0 -5 10 -4 21 3 12 6 19 7
15 1 -6 -11 51 -25 65 -16 5 3 9 1 9 -3 0 -9 16 -12 78 -15 17 -1 32 -5 32
-10 0 -4 9 -8 20 -8 11 0 20 -5 20 -11 0 -8 4 -8 14 0 10 9 16 8 26 -4 7 -9
20 -13 27 -10 8 2 23 1 33 -5 10 -5 32 -11 49 -12 17 -1 31 -8 31 -15 0 -8 12
-13 29 -13 16 0 36 -6 44 -14 11 -11 17 -12 26 -3 8 8 11 6 11 -7 0 -16 6 -18
40 -12 22 3 40 3 40 -2 0 -4 8 -8 18 -9 9 -1 24 -4 32 -6 8 -3 25 -8 38 -12
12 -4 22 -12 22 -17 0 -5 6 -8 13 -5 13 5 80 -19 167 -61 30 -14 57 -26 60
-27 3 -1 19 -8 35 -15 17 -7 32 -14 35 -14 3 -1 11 -5 18 -9 6 -5 12 -6 12 -2
0 3 15 -2 33 -12 17 -9 35 -18 40 -19 4 -1 10 -3 15 -4 4 -1 10 -2 14 -2 3 1
11 -5 18 -13 6 -7 18 -11 26 -8 8 3 14 0 14 -7 0 -6 5 -8 10 -5 6 3 10 -1 10
-10 0 -11 5 -15 14 -12 8 3 17 3 20 -1 4 -3 13 -7 21 -8 8 -1 27 -11 43 -23
16 -11 32 -18 36 -14 3 3 6 1 6 -5 0 -7 9 -12 19 -12 10 0 21 -7 25 -15 3 -8
9 -14 13 -13 12 3 88 -38 102 -56 7 -9 17 -13 22 -10 5 3 9 0 9 -7 0 -7 3 -9
7 -6 3 4 21 -4 38 -18 18 -13 35 -21 39 -18 3 4 6 1 6 -5 0 -7 9 -12 20 -12
11 0 20 -4 20 -10 0 -5 6 -10 14 -10 7 0 19 -7 26 -15 7 -9 15 -13 17 -11 3 3
14 -3 24 -13 11 -10 32 -24 47 -32 15 -7 38 -26 51 -41 13 -15 27 -25 32 -22
5 3 9 0 9 -5 0 -6 3 -10 8 -9 14 3 42 -14 36 -23 -3 -5 0 -10 5 -10 6 -1 15
-2 21 -3 5 0 18 -9 30 -18 11 -10 20 -15 20 -13 0 3 10 -1 23 -10 13 -8 27
-12 30 -8 4 3 7 1 7 -5 0 -6 9 -9 20 -7 11 2 20 1 20 -3 0 -14 39 -11 50 4 7
7 17 11 22 8 6 -4 14 -1 18 5 4 7 13 13 21 15 36 6 58 19 64 36 3 10 15 22 26
25 10 4 19 11 19 16 0 5 6 9 13 9 8 0 22 9 31 19 10 11 31 25 47 31 16 7 26
16 23 21 -3 5 2 9 11 9 9 0 32 12 51 26 19 15 34 22 34 18 0 -5 5 -1 11 9 6 9
14 15 19 12 4 -3 11 2 14 11 3 8 11 14 18 13 21 -3 48 12 48 28 0 8 5 11 12 7
6 -4 17 1 25 11 7 11 13 13 13 6 0 -7 5 -9 10 -6 6 4 7 11 4 17 -5 7 -1 9 9 5
9 -3 20 0 24 7 5 8 24 21 43 30 19 9 50 25 68 36 17 11 32 17 32 14 0 -4 6 -1
14 5 11 9 15 9 19 -1 4 -8 6 -7 6 5 1 9 6 17 12 17 5 0 7 6 3 13 -5 8 -2 8 9
-2 15 -12 21 -9 18 12 0 4 4 7 10 7 6 0 25 6 42 14 18 8 49 20 70 26 20 6 37
16 37 21 0 5 7 9 15 9 8 0 30 9 50 20 24 13 35 16 35 7 0 -6 7 -3 16 8 8 11
22 19 30 17 8 -2 14 2 14 8 0 6 4 8 10 5 6 -3 10 -1 10 4 0 6 9 11 19 11 11 0
23 5 26 10 4 6 12 10 18 8 7 -1 34 8 60 20 26 13 52 20 56 17 5 -3 12 1 14 7
4 10 6 9 6 -1 1 -11 5 -10 21 4 10 9 26 15 35 12 10 -4 15 -1 15 10 0 9 3 14
6 11 3 -3 32 4 65 17 33 13 59 19 59 13 0 -7 4 -7 13 0 10 9 70 28 117 37 8 2
15 4 15 5 0 1 11 3 24 6 14 2 30 9 37 15 7 6 22 8 33 4 10 -3 22 -1 26 5 3 6
10 8 15 5 5 -3 11 -1 15 5 3 5 17 10 31 10 13 0 24 4 24 8 0 4 12 8 28 8 15 1
38 3 52 7 14 3 46 10 71 16 25 6 61 12 80 15 19 2 41 7 49 10 22 8 154 28 265
40 33 4 73 9 88 12 48 10 77 12 77 5 0 -4 9 -7 20 -7 11 0 20 5 20 11 0 11
136 13 147 2 3 -4 15 -1 27 6 25 14 66 19 66 8 0 -9 43 -6 59 4 6 3 11 1 11
-6 0 -7 6 -5 13 6 10 12 16 14 21 7 11 -18 26 -14 27 6 0 10 3 12 6 5 2 -7 9
-13 14 -13 6 0 7 4 4 10 -3 5 6 12 20 16 13 3 23 10 20 14 -3 4 7 11 23 15 15
4 21 10 15 12 -9 3 -10 10 -3 22 5 10 6 21 3 25 -3 3 2 6 13 6 17 0 19 7 18
60 -2 54 -5 64 -33 90 -30 30 -59 33 -96 11 -5 -3 -14 -6 -20 -8 -5 -1 -40
-10 -77 -21 -43 -12 -70 -16 -77 -9 -11 11 -34 0 -26 -14 4 -5 1 -9 -4 -9 -6
0 -11 5 -11 11 0 5 -5 7 -10 4 -6 -4 -7 -11 -4 -17 4 -7 -4 -8 -25 -3 -24 5
-31 3 -31 -9 0 -10 -6 -13 -16 -9 -9 3 -19 1 -23 -5 -3 -6 -20 -13 -36 -16
-17 -2 -30 -5 -30 -6 0 -1 -11 -3 -25 -4 -14 -2 -35 -8 -46 -14 -12 -6 -24 -9
-27 -5 -4 3 -13 0 -21 -6 -9 -7 -24 -10 -36 -6 -12 4 -27 2 -35 -5 -19 -16
-59 -22 -140 -24 -57 -1 -73 3 -87 18 -10 10 -24 16 -32 13 -8 -3 -16 2 -19
14 -3 11 -9 19 -14 18 -20 -3 -34 2 -28 11 3 6 -1 10 -10 10 -9 0 -14 4 -11 9
3 5 -1 14 -10 21 -8 7 -13 19 -10 26 3 7 -4 16 -14 19 -11 4 -17 12 -13 21 3
8 0 21 -7 29 -7 8 -9 15 -6 15 4 0 0 7 -8 16 -9 8 -14 20 -11 25 4 5 2 9 -2 9
-5 0 -17 17 -27 38 -10 20 -24 50 -32 65 -8 16 -14 36 -14 45 0 9 -11 22 -24
28 -21 10 -28 8 -47 -12 -12 -13 -33 -24 -46 -24 -15 0 -23 -6 -23 -17 -1 -25
-26 -56 -39 -48 -7 3 -11 -2 -11 -14 0 -12 -5 -21 -12 -21 -6 0 -9 -3 -5 -6 8
-8 -18 -34 -33 -34 -6 0 -9 -4 -6 -9 6 -10 -41 -61 -57 -61 -6 0 -8 -3 -4 -6
9 -9 -43 -75 -54 -68 -5 3 -9 -4 -9 -15 0 -11 -10 -27 -22 -36 -13 -8 -22 -18
-20 -20 1 -3 -1 -5 -5 -6 -5 0 -16 -14 -26 -30 -11 -16 -25 -29 -33 -29 -8 0
-14 -4 -14 -9 0 -5 -10 -21 -22 -36 -33 -39 -235 -244 -218 -220 9 12 1 8 -22
-10 -20 -16 -42 -39 -49 -52 -7 -13 -16 -24 -21 -24 -4 -1 -12 -2 -16 -3 -13
-2 -42 -33 -36 -38 4 -5 -8 -9 -73 -23 -16 -4 -58 48 -44 53 7 2 5 10 -4 19
-10 9 -12 20 -7 27 12 15 -2 62 -17 58 -7 -1 -10 2 -7 6 3 5 -4 18 -16 28 -15
14 -22 16 -25 6 -3 -6 -9 -10 -14 -6 -5 3 -9 1 -9 -5 0 -6 -6 -8 -14 -5 -8 3
-17 1 -21 -5 -3 -6 -19 -11 -35 -11 -17 0 -30 -7 -34 -16 -4 -9 -9 -14 -13
-11 -3 4 -19 -3 -34 -14 -16 -11 -29 -17 -29 -12 0 4 -4 3 -8 -2 -10 -14 -96
-55 -115 -55 -9 0 -26 -10 -38 -22 -15 -17 -23 -19 -26 -10 -6 17 -33 -4 -33
-25 0 -8 -5 -11 -11 -7 -6 3 -15 0 -20 -7 -4 -8 -13 -15 -19 -15 -5 -1 -11 -2
-12 -4 -2 -1 -10 -3 -19 -5 -8 -1 -28 -14 -44 -29 -15 -14 -34 -26 -41 -26 -7
0 -17 -6 -21 -14 -4 -8 -10 -15 -13 -15 -15 0 -48 -18 -70 -38 -14 -13 -40
-29 -57 -35 -18 -7 -33 -16 -33 -20 0 -10 -68 -52 -89 -55 -9 -1 -19 3 -23 10
-5 8 -8 7 -8 -4 0 -15 -11 -17 -53 -10 -5 0 -5 6 -1 12 5 8 1 8 -14 0 -16 -8
-21 -7 -26 4 -3 8 -12 12 -19 9 -13 -5 -104 48 -118 69 -4 5 -11 7 -17 3 -6
-3 -13 3 -17 14 -7 23 -21 26 -28 8 -3 -8 -6 -6 -6 5 -1 9 -7 17 -15 17 -8 0
-21 6 -28 13 -17 16 -69 41 -88 42 -8 0 -15 7 -15 15 0 8 -7 15 -15 16 -29 2
-100 39 -100 52 0 7 -5 10 -11 7 -5 -4 -18 0 -27 8 -15 14 -75 42 -95 45 -4 1
-14 7 -22 14 -26 23 -45 38 -47 38 -15 -1 -68 27 -68 37 0 7 -10 13 -23 13
-13 0 -28 5 -33 10 -6 6 -34 13 -62 15 -50 3 -58 -1 -53 -29 1 -4 -5 -19 -13
-31 -11 -17 -12 -25 -4 -27 7 -3 8 -9 3 -19 -9 -14 -11 -19 -19 -56 -2 -11
-12 -18 -25 -17 -11 0 -21 -3 -21 -7 0 -12 -31 -4 -40 10 -4 8 -12 11 -18 7
-5 -3 -12 1 -16 9 -3 8 -10 15 -17 15 -6 0 -26 15 -45 33 -19 17 -45 41 -60
52 -35 27 -104 98 -104 108 0 4 -7 7 -15 7 -10 0 -15 7 -13 17 2 10 -2 18 -7
18 -11 0 -71 55 -60 55 3 0 -15 21 -40 46 -25 26 -45 53 -45 60 0 8 -5 14 -11
14 -6 0 -24 15 -40 33 -16 17 -39 42 -51 55 -17 16 -19 22 -8 23 11 0 10 3 -3
8 -10 4 -18 11 -17 16 1 6 -9 12 -22 15 -13 3 -23 11 -23 18 0 7 -13 21 -30
32 -16 11 -26 20 -21 20 5 0 2 8 -7 18 -10 10 -14 22 -10 25 3 4 1 7 -7 7 -7
0 -39 27 -71 60 -32 33 -54 60 -48 60 6 0 7 5 4 10 -4 6 -11 8 -16 5 -5 -4 -9
-2 -9 4 0 6 -9 15 -20 21 -16 9 -22 6 -34 -19z"/>
<path d="M6414 3463 c-9 -10 -26 -13 -46 -10 -20 2 -38 -1 -47 -10 -7 -8 -17
-11 -20 -6 -7 10 -81 13 -81 3 0 -4 -36 -7 -80 -6 -44 0 -80 -2 -80 -6 0 -5
-6 -8 -14 -8 -8 0 -17 -6 -19 -12 -4 -10 -6 -10 -6 0 -1 17 -36 15 -55 -3 -9
-9 -17 -11 -21 -5 -4 7 -13 7 -26 0 -13 -7 -19 -7 -19 0 0 11 -22 9 -31 -3 -3
-4 -23 -10 -45 -13 -21 -3 -42 -10 -46 -17 -6 -9 -8 -9 -8 0 0 11 -11 11 -40
0 -8 -3 -22 -5 -30 -5 -8 1 -42 -7 -75 -17 -33 -10 -69 -19 -80 -20 -60 -7
-104 -19 -99 -27 3 -5 -6 -7 -20 -4 -14 3 -28 1 -31 -4 -3 -5 -13 -9 -23 -9
-36 -1 -82 -14 -82 -23 0 -6 -7 -8 -15 -4 -8 3 -15 0 -15 -6 0 -6 -3 -9 -6 -5
-4 3 -18 0 -33 -7 -14 -7 -31 -11 -38 -9 -6 2 -14 0 -17 -6 -3 -5 -16 -7 -28
-3 -16 4 -19 2 -13 -8 6 -10 2 -12 -15 -7 -14 4 -33 -1 -49 -12 -35 -23 -112
-52 -122 -45 -5 3 -9 1 -9 -4 0 -5 -14 -12 -32 -16 -17 -3 -40 -13 -49 -22
-10 -9 -24 -14 -31 -12 -7 3 -42 -10 -77 -29 -35 -18 -67 -30 -72 -27 -5 3 -9
0 -9 -5 0 -6 -7 -11 -15 -11 -8 0 -15 -5 -15 -11 0 -5 -4 -8 -9 -4 -5 3 -12 1
-16 -5 -4 -6 -11 -8 -16 -5 -5 4 -9 1 -9 -4 0 -6 -9 -11 -20 -11 -11 0 -20 -5
-20 -11 0 -5 -4 -7 -10 -4 -5 3 -10 2 -10 -4 0 -6 -19 -16 -42 -22 -24 -7 -50
-20 -59 -29 -8 -8 -34 -24 -57 -34 -23 -11 -42 -23 -42 -28 0 -5 -4 -7 -9 -4
-5 3 -14 -1 -21 -9 -7 -8 -16 -12 -21 -10 -4 3 -38 -15 -74 -40 -36 -26 -75
-47 -85 -48 -11 -1 -20 -7 -20 -14 0 -8 -8 -17 -17 -20 -10 -4 -24 -13 -32
-20 -7 -8 -26 -17 -42 -20 -15 -3 -27 -10 -26 -17 1 -6 -5 -11 -13 -11 -8 0
-15 -4 -15 -7 0 -8 -46 -43 -57 -43 -3 0 -18 -10 -32 -22 -15 -13 -26 -18 -26
-11 0 7 -11 1 -24 -12 -13 -14 -21 -28 -19 -32 2 -5 -3 -8 -11 -8 -8 0 -20 -8
-25 -17 -6 -10 -11 -14 -11 -9 0 5 -12 -3 -26 -18 -15 -14 -35 -26 -44 -26
-10 0 -20 -10 -23 -22 -5 -18 -8 -19 -21 -8 -13 10 -16 10 -16 -3 0 -10 -6
-14 -15 -11 -8 3 -17 0 -20 -8 -11 -29 -152 -9 -191 27 -22 19 -52 38 -59 36
-4 -1 -13 8 -19 20 -6 13 -22 26 -34 29 -13 3 -23 10 -23 15 1 6 -4 10 -10 10
-6 0 -16 7 -22 15 -7 8 -24 21 -39 27 -16 7 -28 17 -28 23 0 6 -5 8 -10 5 -6
-3 -13 1 -16 9 -3 9 -12 16 -20 16 -8 0 -14 7 -14 15 0 8 -8 15 -19 15 -21 0
-45 23 -34 33 3 4 1 7 -5 7 -7 0 -12 -5 -12 -12 0 -6 -7 -4 -18 5 -10 10 -24
17 -31 17 -8 0 -11 6 -7 15 4 10 -1 15 -14 15 -11 0 -20 4 -20 10 0 5 -3 9 -7
9 -5 -1 -11 0 -15 1 -5 1 -14 3 -20 4 -7 1 -12 8 -10 15 1 7 -2 10 -7 6 -6 -3
-20 4 -31 15 -11 11 -25 18 -29 15 -5 -3 -23 7 -40 22 -16 15 -40 28 -53 30
-13 2 -33 15 -44 29 -12 15 -28 24 -35 21 -8 -2 -26 7 -41 21 -15 13 -38 26
-52 27 -34 4 -46 13 -46 33 0 12 -2 14 -8 4 -6 -9 -20 -6 -58 13 -27 14 -55
25 -62 25 -7 0 -15 7 -18 15 -4 8 -19 15 -35 15 -21 0 -27 4 -23 15 5 11 2 13
-11 9 -9 -4 -20 -2 -24 4 -3 6 -20 13 -36 16 -33 6 -98 37 -103 49 -2 4 -8 4
-14 1 -6 -4 -15 0 -20 7 -8 11 -11 12 -15 1 -4 -10 -9 -9 -24 4 -10 9 -19 14
-19 10 0 -3 -12 1 -27 11 -15 10 -31 18 -37 18 -18 2 -50 18 -58 29 -4 6 -25
10 -47 9 -23 -1 -41 2 -41 7 0 5 -7 7 -15 4 -8 -4 -15 -2 -15 3 0 5 -10 9 -23
8 -12 -1 -33 5 -46 14 -14 9 -35 14 -48 13 -13 -2 -23 1 -23 7 0 6 -3 10 -7 9
-5 -1 -20 2 -34 6 -14 4 -34 9 -45 11 -10 2 -19 4 -19 5 0 2 -33 9 -65 14 -69
11 -100 19 -100 27 0 4 -9 6 -20 4 -11 -2 -20 0 -20 4 0 5 -12 9 -28 9 -15 1
-47 4 -72 7 -25 3 -57 6 -72 6 -15 1 -26 4 -24 8 3 4 -7 7 -22 8 -15 1 -45 4
-67 8 -22 4 -67 8 -100 8 -33 1 -65 5 -72 10 -6 4 -14 1 -16 -5 -4 -9 -6 -7
-6 3 -1 11 -9 15 -29 13 -15 -1 -27 -3 -27 -4 0 -1 -8 -3 -17 -5 -10 -2 -18 1
-18 7 0 6 -6 5 -15 -2 -11 -9 -15 -9 -15 -1 0 7 -4 9 -10 6 -5 -3 -19 -1 -30
5 -14 8 -20 8 -20 0 0 -6 -5 -8 -12 -4 -19 12 -52 13 -65 2 -9 -7 -13 -7 -13
1 0 18 -27 13 -34 -6 -6 -14 -9 -15 -15 -4 -7 11 -12 8 -22 -10 -7 -13 -14
-27 -15 -31 -1 -5 -3 -11 -4 -15 -7 -20 -6 -80 2 -95 6 -12 5 -18 -3 -18 -8 0
-8 -4 1 -15 6 -8 9 -18 6 -23 -3 -5 8 -23 24 -41 17 -17 30 -35 30 -41 0 -5 6
-10 14 -10 7 0 19 -7 26 -15 7 -9 15 -13 18 -11 2 3 10 -1 18 -8 11 -12 37
-15 157 -19 15 0 27 -4 27 -8 0 -3 15 -5 33 -4 17 2 37 -1 43 -6 5 -4 31 -7
58 -5 26 1 49 -1 52 -6 3 -4 26 -7 51 -6 24 1 48 -3 51 -9 7 -10 39 -10 49 1
3 3 12 -1 19 -9 8 -7 23 -11 34 -8 11 3 26 0 34 -6 7 -6 21 -9 30 -5 10 4 18
0 22 -10 6 -15 28 -17 50 -3 7 4 15 0 18 -9 4 -11 14 -15 31 -12 14 3 25 2 25
-3 0 -4 16 -6 35 -4 24 3 35 1 35 -8 0 -7 14 -13 32 -14 45 -3 79 -9 108 -21
14 -5 27 -10 30 -10 3 -1 30 -10 62 -21 31 -11 59 -17 62 -14 3 4 6 0 6 -7 0
-7 3 -11 6 -7 4 3 24 -3 46 -14 21 -11 43 -17 48 -14 6 3 10 1 10 -4 0 -6 11
-11 24 -11 14 0 32 -7 40 -16 9 -8 29 -16 46 -16 16 -1 27 -5 24 -9 -2 -4 0
-10 6 -14 5 -3 10 -1 10 5 0 6 10 4 24 -6 14 -8 29 -15 33 -15 4 1 8 -5 8 -11
0 -8 13 -13 30 -13 43 -1 73 -13 85 -35 6 -11 16 -17 25 -14 9 4 22 0 31 -7 9
-7 22 -14 30 -15 8 -1 32 -11 53 -22 22 -12 42 -18 45 -15 3 4 6 1 6 -4 0 -6
22 -22 50 -36 27 -13 46 -28 42 -32 -4 -5 -2 -5 4 -2 7 4 29 -5 50 -19 21 -14
46 -28 57 -30 11 -2 26 -13 34 -24 8 -11 22 -20 32 -20 10 0 28 -9 41 -20 12
-11 31 -22 41 -25 11 -4 19 -11 19 -16 0 -5 7 -9 15 -9 7 0 18 -7 23 -16 5 -9
13 -16 18 -16 5 0 8 -4 7 -9 -2 -5 5 -9 15 -9 10 0 35 -16 55 -35 21 -20 42
-33 47 -30 6 4 10 1 10 -5 0 -6 11 -15 25 -20 14 -5 25 -13 24 -17 -3 -20 2
-27 11 -13 6 10 10 11 10 3 0 -7 7 -13 15 -13 8 0 17 -11 21 -24 3 -15 11 -23
19 -20 14 6 57 -28 103 -78 14 -16 31 -28 39 -28 7 0 16 -7 19 -15 4 -8 10
-12 15 -9 5 3 10 0 10 -5 1 -6 2 -17 3 -23 0 -7 7 -14 14 -14 6 -1 17 -2 23
-3 6 0 9 -8 6 -16 -4 -8 -2 -17 3 -20 6 -4 10 -2 10 4 0 6 15 0 34 -12 18 -12
32 -25 30 -28 -2 -4 5 -14 15 -23 14 -13 21 -14 27 -5 5 9 11 7 21 -6 9 -14
13 -15 13 -4 0 8 3 10 8 4 11 -16 45 -12 66 7 18 17 25 19 43 17 3 0 10 7 15
16 6 10 16 14 29 10 11 -4 18 -3 17 2 -2 5 7 21 20 37 12 16 22 25 22 21 0 -5
9 2 20 15 11 13 20 20 20 16 0 -4 7 -1 15 6 8 7 21 19 29 25 8 7 19 20 24 28
5 9 16 17 25 19 9 1 27 14 40 30 13 15 33 28 45 29 14 1 22 8 22 19 0 13 10
20 30 25 17 3 30 9 30 14 0 5 9 18 20 29 11 11 20 15 20 10 0 -6 6 -5 14 2 8
7 12 16 10 20 -3 4 7 10 21 14 13 3 23 10 20 14 -3 4 6 11 20 14 14 4 25 11
25 16 0 6 7 10 15 10 8 0 15 5 15 11 0 5 4 7 10 4 5 -3 25 8 42 24 18 17 43
31 56 31 20 0 27 10 23 33 -1 5 3 6 9 2 5 -3 13 1 16 9 3 9 10 14 14 11 5 -3
16 2 24 11 9 9 23 13 31 10 8 -3 17 3 20 15 4 11 9 18 13 15 3 -3 13 1 23 10
10 9 29 17 43 18 14 0 26 4 26 8 0 4 18 17 40 28 22 11 40 25 40 30 0 6 3 9 8
8 12 -4 72 24 72 34 0 5 4 7 8 4 5 -3 23 4 41 15 19 11 45 22 60 24 41 5 64
16 89 42 12 13 27 21 33 17 15 -9 92 16 102 33 5 8 12 11 18 8 5 -4 9 -1 9 4
0 6 12 11 26 11 17 0 23 4 18 12 -5 8 -2 9 10 5 10 -4 27 -1 39 5 12 7 24 13
27 13 3 1 19 8 35 15 17 7 40 12 53 11 12 0 22 4 22 10 0 6 6 9 14 6 7 -3 18
-1 22 3 5 5 21 11 34 14 14 2 27 5 30 6 3 2 8 2 13 1 4 0 7 4 7 11 0 6 3 9 6
5 3 -3 25 0 49 8 24 7 46 10 49 7 4 -3 6 0 6 6 0 6 9 9 20 7 11 -2 22 0 25 6
4 5 17 7 31 5 13 -3 24 -1 24 4 0 4 14 6 31 3 22 -3 34 1 43 13 10 13 15 14
21 4 6 -10 9 -10 15 1 10 15 40 21 40 8 0 -5 11 -4 26 1 14 6 39 10 55 10 16
0 29 5 29 11 0 5 5 7 10 4 6 -4 17 -1 25 5 10 8 15 9 15 2 0 -13 64 -6 68 6 1
5 21 7 43 5 23 -3 46 0 54 7 8 7 22 9 31 6 9 -4 24 -1 32 6 13 11 14 11 7 -1
-6 -11 -3 -13 16 -7 13 4 29 8 34 9 6 2 15 6 21 10 6 3 14 3 18 0 10 -11 46
-11 46 0 0 6 5 6 13 0 14 -11 18 -11 75 6 23 6 42 16 42 22 0 6 4 7 10 4 5 -3
20 6 32 21 13 15 29 33 36 40 6 7 13 24 14 38 1 14 5 26 8 26 3 0 5 18 5 40 0
22 -4 40 -10 40 -5 0 -4 4 4 9 9 6 10 10 2 16 -9 5 -9 11 1 23 10 12 10 16 0
19 -6 3 -10 9 -7 13 3 5 -3 18 -13 28 -10 10 -16 24 -14 30 2 7 -1 12 -7 12
-6 0 -11 -6 -11 -12 0 -9 -3 -9 -9 1 -13 20 -39 22 -57 4z"/>
<path d="M185 2764 c-12 -9 -11 -13 10 -24 14 -7 25 -22 25 -31 0 -11 10 -21
25 -25 14 -3 25 -11 25 -18 0 -6 13 -17 29 -24 16 -7 31 -22 34 -33 3 -11 9
-18 14 -17 13 5 54 -28 45 -37 -4 -4 1 -5 11 -2 11 4 17 1 17 -8 0 -8 7 -15
15 -15 8 0 15 -4 15 -10 0 -5 7 -10 15 -10 8 0 14 -6 12 -12 -1 -7 5 -13 13
-13 8 0 22 -7 30 -15 23 -23 67 -43 79 -36 6 4 11 2 11 -3 0 -6 14 -11 30 -11
17 0 30 -3 30 -7 0 -5 19 -8 43 -8 23 1 47 -2 52 -6 6 -3 17 -7 25 -7 39 -1
138 -13 165 -19 17 -4 38 -8 48 -9 9 -1 18 -2 20 -4 1 -1 18 -4 37 -6 19 -3
59 -12 88 -20 29 -8 57 -12 62 -9 5 3 11 1 15 -5 3 -5 16 -10 29 -10 12 0 27
-5 34 -12 7 -7 12 -9 12 -5 0 3 11 2 25 -3 18 -7 25 -6 25 3 1 8 5 7 13 -3 17
-21 77 -42 77 -27 0 8 4 7 12 -1 7 -7 25 -12 41 -12 16 0 26 -4 22 -10 -3 -5
1 -10 10 -10 10 0 14 5 10 13 -4 6 1 3 9 -7 9 -11 16 -16 16 -10 0 5 5 2 10
-6 9 -14 30 -20 72 -21 10 0 15 -6 11 -15 -3 -8 -1 -14 5 -14 6 0 12 5 14 11
3 8 10 9 23 2 11 -6 31 -15 45 -21 14 -5 49 -20 79 -33 30 -13 56 -22 59 -21
3 2 8 0 11 -5 5 -7 52 -32 71 -38 26 -8 59 -26 65 -35 3 -5 10 -8 15 -5 5 3
15 -3 22 -12 13 -19 32 -26 58 -25 9 0 20 -9 26 -21 6 -14 16 -21 29 -19 12 3
28 -7 43 -25 14 -17 26 -23 29 -16 3 8 12 7 34 -5 16 -9 29 -20 29 -24 0 -5 5
-8 10 -8 14 0 93 -52 103 -67 4 -7 16 -13 26 -13 11 0 21 -9 24 -21 4 -13 10
-18 17 -14 7 4 15 3 19 -2 9 -13 85 -58 94 -55 7 2 11 -13 7 -37 -1 -9 4 -12
14 -8 9 4 16 2 16 -4 0 -6 4 -7 10 -4 5 3 20 -1 32 -9 12 -9 19 -16 14 -16 -5
0 8 -12 29 -26 21 -14 43 -31 50 -37 7 -7 29 -25 49 -41 20 -16 36 -35 36 -43
0 -7 9 -13 19 -13 11 0 23 -9 26 -21 4 -12 12 -18 21 -15 9 3 14 -1 14 -14 0
-13 5 -18 15 -14 8 4 17 -1 21 -10 3 -9 10 -13 15 -10 5 3 6 -2 3 -10 -4 -11
0 -16 14 -16 12 0 23 -9 27 -20 3 -11 12 -20 18 -20 7 0 18 -9 25 -20 7 -11
19 -20 27 -20 8 0 14 -4 13 -9 -5 -14 41 -71 57 -71 8 0 15 -6 16 -12 0 -7 17
-26 38 -43 39 -31 40 -34 42 -62 0 -11 3 -13 6 -5 2 6 9 12 14 12 5 0 8 -6 6
-12 -1 -7 6 -12 16 -12 11 1 16 -4 15 -15 -2 -9 4 -16 12 -16 8 0 17 -3 20 -6
14 -16 101 -49 135 -51 22 -2 43 -7 47 -13 5 -6 8 -5 8 3 0 6 11 12 25 12 14
0 25 5 25 11 0 5 4 8 9 5 5 -3 14 1 21 9 7 8 16 15 21 15 10 0 43 26 74 57 12
13 27 23 32 23 6 0 17 10 26 23 23 35 85 97 96 97 6 0 11 7 11 15 0 8 7 15 16
15 8 0 12 5 9 11 -4 6 2 13 14 16 11 3 19 8 18 12 -2 3 16 24 40 47 24 23 43
38 43 35 0 -3 5 2 11 11 6 11 16 15 26 11 10 -4 14 -2 10 4 -8 13 25 44 50 47
10 2 18 9 18 17 0 7 11 19 25 26 14 7 21 13 17 13 -4 0 -2 6 5 14 7 8 15 14
18 14 20 -1 30 3 26 11 -7 10 41 44 62 44 7 0 11 6 8 13 -5 14 20 27 35 18 5
-3 9 4 9 15 0 14 5 19 15 15 8 -4 15 -1 15 6 0 13 30 46 30 33 0 -4 7 1 15 11
8 11 15 17 15 13 0 -5 6 -3 13 3 65 56 72 58 81 38 4 -9 5 -8 5 2 -2 28 1 43
7 37 4 -4 21 3 38 16 16 12 35 22 41 23 7 1 24 13 40 28 24 22 49 31 77 27 4
0 10 8 13 19 4 11 15 20 26 20 11 0 31 11 44 25 16 18 25 22 28 13 4 -10 9 -8
17 5 6 9 16 17 22 17 11 0 87 47 98 61 3 3 13 5 23 3 9 -1 17 2 17 7 0 5 9 9
19 9 11 0 23 5 27 11 6 11 68 40 80 38 4 0 10 3 13 8 6 9 93 44 108 45 5 0 13
4 20 10 7 5 24 11 39 13 14 1 29 7 33 12 7 12 53 24 46 13 -3 -5 -1 -11 5 -15
5 -3 10 -2 10 3 0 5 19 17 43 27 23 9 52 22 64 27 11 6 26 8 31 4 6 -3 13 -2
17 4 4 6 11 8 16 5 5 -4 12 0 15 8 3 8 16 13 29 11 14 -1 27 2 31 7 3 5 10 7
15 3 5 -3 16 0 24 6 8 6 19 9 24 6 5 -4 12 -2 15 3 3 4 25 12 48 16 24 4 50 9
58 11 8 2 29 6 45 8 49 7 89 18 103 29 8 6 12 6 12 -3 0 -8 4 -9 13 -3 6 5 27
9 45 8 17 0 32 3 32 7 0 4 3 7 8 6 6 -2 96 10 147 19 11 2 26 4 33 5 6 1 12 5
12 8 0 4 13 6 30 5 17 -1 30 1 30 4 0 10 71 37 87 33 7 -2 13 5 13 14 0 10 5
14 16 10 8 -3 13 -2 10 3 -5 8 27 22 59 26 6 0 9 7 7 14 -1 7 2 10 7 6 6 -3
21 5 33 17 13 13 27 22 31 20 4 -1 10 5 13 13 4 10 13 13 26 9 14 -4 18 -2 14
5 -4 7 9 25 30 44 21 17 51 44 66 58 15 15 29 25 30 23 2 -2 10 6 17 18 11 17
11 20 -1 16 -7 -3 -24 -1 -38 5 -14 6 -33 11 -42 12 -10 2 -19 3 -20 4 -10 8
-88 4 -88 -4 0 -6 -3 -5 -8 1 -4 6 -18 10 -32 8 -14 -2 -62 -5 -107 -8 -45 -2
-85 -6 -90 -9 -4 -2 -20 -3 -35 -1 -16 1 -28 0 -28 -4 0 -4 -26 -6 -57 -5 -35
1 -61 -3 -65 -10 -6 -9 -8 -8 -8 2 0 9 -4 10 -12 4 -7 -5 -30 -9 -51 -9 -20 1
-37 -2 -37 -6 0 -4 -8 -6 -17 -6 -10 0 -38 -3 -63 -7 -25 -4 -56 -8 -70 -9
-14 -1 -31 -5 -37 -9 -8 -5 -13 -3 -13 4 0 8 -5 8 -16 -2 -22 -18 -45 -20 -62
-6 -11 9 -17 7 -28 -7 -7 -10 -19 -16 -27 -13 -8 3 -24 -1 -36 -9 -16 -11 -25
-12 -41 -4 -16 9 -22 8 -26 -5 -3 -8 -10 -12 -15 -9 -5 3 -17 -2 -26 -11 -12
-13 -18 -14 -24 -4 -6 10 -11 10 -22 1 -7 -7 -17 -9 -20 -5 -4 3 -7 2 -7 -4 0
-6 -9 -9 -22 -5 -15 4 -19 2 -13 -7 6 -10 2 -11 -15 -6 -13 4 -25 3 -30 -4 -3
-7 -20 -14 -36 -17 -16 -3 -37 -7 -46 -10 -10 -3 -30 -8 -45 -10 -15 -3 -30
-10 -34 -15 -3 -6 -9 -10 -13 -10 -3 1 -7 1 -8 0 -2 0 -10 -2 -18 -4 -30 -8
-135 -49 -140 -56 -3 -3 -13 -5 -22 -3 -10 1 -18 -1 -18 -5 0 -5 -44 -27 -70
-35 -3 -1 -15 -8 -28 -15 -13 -7 -29 -10 -37 -8 -7 3 -23 -4 -35 -16 -13 -11
-32 -22 -44 -23 -12 -1 -24 -3 -27 -3 -3 -1 -18 -12 -33 -26 -14 -13 -26 -20
-26 -15 0 6 -4 10 -10 10 -5 0 -9 -6 -7 -12 1 -7 -8 -14 -20 -16 -13 -2 -23
-7 -23 -12 0 -4 -11 -11 -25 -14 -14 -4 -34 -15 -45 -26 -11 -11 -23 -21 -27
-21 -19 -3 -41 -15 -90 -46 -29 -18 -56 -33 -61 -33 -5 0 -15 -7 -22 -15 -7
-8 -16 -13 -20 -10 -4 3 -11 -2 -14 -11 -4 -11 -13 -14 -30 -10 -20 5 -23 3
-19 -14 4 -14 0 -20 -11 -20 -9 0 -16 -5 -16 -11 0 -5 -4 -7 -10 -4 -5 3 -10
1 -10 -6 0 -9 -3 -9 -14 0 -11 9 -15 6 -20 -14 -4 -14 -13 -25 -21 -25 -8 0
-15 -4 -15 -10 0 -5 -6 -7 -14 -4 -8 3 -17 -3 -20 -14 -6 -18 -38 -36 -58 -33
-5 1 -8 -5 -8 -13 0 -13 -23 -28 -36 -23 -3 1 -12 -9 -19 -23 -8 -14 -14 -21
-15 -15 0 5 -12 -4 -27 -20 -16 -17 -36 -29 -45 -27 -13 3 -16 -1 -11 -14 4
-12 2 -15 -8 -12 -18 6 -38 -13 -31 -31 3 -9 1 -12 -6 -7 -7 4 -15 1 -18 -8
-3 -9 -12 -16 -20 -16 -8 0 -14 -7 -14 -15 0 -8 -3 -14 -7 -14 -19 3 -33 -2
-33 -12 0 -16 -111 -120 -121 -113 -5 3 -9 0 -9 -6 0 -11 -27 -39 -89 -93 -17
-15 -29 -33 -25 -39 4 -6 3 -8 -3 -5 -6 4 -25 -7 -42 -23 -17 -17 -31 -28 -31
-25 0 2 -11 0 -25 -5 -15 -6 -26 -6 -30 0 -4 6 -16 10 -28 10 -26 0 -80 43
-69 55 4 5 2 5 -4 2 -6 -4 -21 2 -33 12 -16 14 -18 21 -9 24 8 4 7 6 -4 6 -10
1 -18 8 -18 16 0 9 -8 19 -17 22 -10 4 -32 21 -49 37 -16 17 -62 60 -101 96
-39 35 -70 67 -68 70 1 3 -3 11 -11 18 -8 7 -14 9 -14 5 -1 -4 -7 3 -15 17 -8
14 -14 19 -15 13 0 -19 -40 18 -40 37 0 13 -1 13 -10 0 -8 -13 -11 -11 -16 8
-4 13 -14 22 -25 22 -11 0 -18 6 -17 12 2 7 -4 13 -12 13 -16 0 -28 9 -87 63
-19 17 -41 32 -48 32 -7 0 -16 7 -19 16 -3 8 -10 13 -15 10 -5 -4 -19 5 -30
20 -11 14 -25 23 -31 19 -5 -3 -10 -1 -10 5 0 6 -4 9 -8 6 -5 -3 -15 6 -22 19
-7 14 -20 25 -27 25 -8 0 -12 4 -9 9 3 5 -6 9 -21 9 -15 0 -29 5 -31 11 -2 6
-9 11 -16 11 -7 0 -21 9 -31 20 -10 11 -24 20 -32 20 -7 0 -13 5 -13 12 0 6
-3 8 -7 5 -3 -4 -12 -2 -20 4 -7 6 -13 9 -13 6 0 -3 -11 5 -25 18 -13 14 -32
25 -41 25 -9 0 -28 12 -41 26 -15 16 -30 24 -40 20 -9 -4 -24 1 -33 9 -10 9
-27 17 -39 18 -11 1 -21 5 -21 9 0 4 -7 8 -15 8 -8 0 -15 4 -15 8 0 5 -12 15
-27 22 -16 8 -34 18 -41 24 -7 5 -27 10 -44 11 -18 2 -37 9 -42 16 -6 8 -22
15 -36 17 -13 1 -28 8 -32 15 -4 6 -8 8 -8 4 0 -4 -10 -2 -22 5 -13 7 -26 13
-30 14 -5 1 -10 3 -13 4 -3 1 -8 3 -12 5 -5 1 -21 5 -38 10 -16 4 -42 17 -57
27 -16 11 -28 16 -28 12 0 -3 -6 -2 -12 3 -7 6 -23 9 -35 8 -13 -1 -23 2 -23
6 0 10 -57 29 -64 22 -3 -4 -6 -1 -6 6 0 9 -5 9 -20 1 -16 -9 -20 -8 -20 5 0
11 -6 15 -19 10 -11 -3 -26 1 -35 10 -9 9 -16 12 -16 6 0 -15 -16 -14 -32 3
-10 9 -20 11 -31 4 -13 -7 -17 -5 -17 8 0 11 -5 14 -16 10 -10 -4 -25 1 -36
11 -14 12 -21 14 -30 5 -9 -9 -16 -8 -31 6 -14 12 -21 13 -24 5 -3 -9 -14 -8
-44 2 -21 8 -39 11 -39 8 0 -3 -9 2 -20 12 -13 11 -20 14 -20 6 0 -8 -7 -10
-22 -5 -13 4 -30 7 -38 7 -8 0 -21 4 -28 10 -10 8 -16 7 -23 -4 -5 -8 -9 -9
-9 -3 0 14 -76 27 -215 38 -38 3 -86 8 -105 11 -19 3 -62 7 -95 8 -33 1 -66 6
-74 11 -8 5 -16 4 -21 -4 -6 -9 -9 -9 -11 -1 -3 9 -12 9 -32 2 -15 -6 -27 -7
-27 -3 0 12 -248 8 -265 -4z"/>
<path d="M1284 1918 c-3 -4 -9 -6 -13 -4 -14 9 -30 -9 -21 -24 7 -11 10 -11
10 -2 0 18 49 -18 50 -36 0 -7 4 -10 10 -7 5 3 12 -5 16 -19 3 -14 11 -23 18
-20 12 5 196 -170 196 -187 0 -6 5 -7 10 -4 6 3 10 1 10 -6 0 -6 9 -20 21 -30
11 -9 21 -21 22 -26 1 -4 5 -7 10 -5 4 1 7 -2 7 -8 0 -5 7 -10 15 -10 8 0 15
-9 15 -20 0 -12 12 -26 30 -35 17 -9 30 -20 30 -25 0 -5 11 -12 25 -16 14 -3
22 -10 19 -15 -3 -5 -2 -14 2 -20 4 -8 9 -7 15 2 5 8 9 9 9 3 0 -6 13 -17 30
-24 16 -7 28 -16 25 -20 -2 -4 8 -13 23 -21 15 -8 33 -18 39 -24 7 -5 24 -19
39 -30 14 -11 35 -28 45 -37 11 -10 22 -19 27 -19 19 -4 36 -14 64 -40 17 -15
36 -25 43 -23 6 3 17 -5 23 -18 6 -13 11 -17 11 -10 1 11 4 11 16 0 32 -29 45
-38 53 -38 11 0 115 -76 147 -107 11 -10 28 -22 38 -26 9 -3 17 -11 17 -16 0
-5 11 -12 25 -15 14 -4 32 -17 41 -31 9 -14 20 -22 25 -19 5 3 9 1 9 -4 0 -6
20 -16 44 -23 25 -7 42 -17 39 -22 -3 -5 3 -5 13 1 11 5 26 8 34 6 8 -1 25 -5
38 -8 12 -3 22 -1 22 5 0 5 5 9 11 9 5 0 7 -4 4 -10 -3 -6 1 -7 9 -4 9 3 16
10 16 14 0 4 6 8 13 7 31 -1 48 4 42 12 -3 5 -1 12 5 16 5 3 10 1 10 -4 0 -7
7 -7 20 1 11 7 20 19 20 26 0 8 9 16 19 19 16 4 19 13 17 56 -1 46 -4 52 -24
55 -13 2 -26 10 -29 18 -3 8 -11 14 -19 14 -7 0 -18 8 -23 19 -6 10 -22 22
-36 25 -14 4 -25 13 -25 20 0 8 -6 16 -14 19 -8 3 -20 18 -28 33 -7 16 -22 31
-33 34 -32 8 -68 37 -61 49 10 16 -28 32 -44 18 -10 -9 -11 -9 -6 1 4 6 4 12
-1 12 -4 0 -27 18 -50 39 -23 22 -51 42 -63 46 -11 3 -18 11 -15 16 4 5 -1 9
-9 9 -8 0 -21 6 -28 13 -7 7 -29 22 -48 34 -19 12 -41 31 -49 41 -8 11 -20 18
-28 15 -7 -3 -13 0 -13 6 0 6 -7 11 -15 11 -8 0 -15 7 -15 15 0 8 -9 15 -20
15 -11 0 -23 7 -26 15 -4 8 -11 12 -16 9 -5 -4 -23 3 -39 15 -15 11 -35 21
-43 21 -7 0 -16 7 -20 15 -3 8 -12 15 -21 15 -8 0 -15 5 -15 11 0 6 -7 9 -15
5 -8 -3 -15 -1 -15 3 0 10 -91 57 -102 53 -5 -1 -8 2 -8 7 0 5 -16 15 -35 22
-19 7 -35 16 -35 20 0 3 -10 6 -22 5 -13 -1 -34 8 -47 20 -14 14 -31 20 -44
16 -14 -4 -18 -2 -13 7 5 8 3 12 -5 10 -28 -3 -40 1 -33 13 4 7 3 8 -5 4 -6
-4 -18 -2 -26 4 -8 7 -15 10 -15 7 0 -8 -62 14 -80 28 -14 11 -41 20 -95 30
-11 2 -20 4 -20 6 0 7 -127 5 -131 -3z"/>
<path d="M5676 1903 c-22 -7 -44 -12 -50 -10 -6 2 -17 -3 -25 -10 -10 -10 -16
-11 -21 -3 -8 13 -40 3 -40 -13 0 -8 -3 -8 -11 0 -8 8 -16 6 -30 -8 -11 -11
-24 -17 -29 -14 -6 4 -10 2 -10 -4 0 -6 -7 -8 -15 -5 -8 4 -15 1 -15 -5 0 -6
-5 -11 -11 -11 -5 0 -7 5 -3 11 4 6 -14 -1 -40 -16 -29 -17 -46 -22 -46 -14 0
9 -5 8 -17 -3 -10 -9 -24 -13 -32 -10 -7 2 -16 0 -20 -5 -3 -5 -23 -17 -43
-26 -21 -10 -38 -23 -38 -29 0 -7 -4 -7 -13 0 -10 8 -19 5 -38 -12 -13 -12
-29 -21 -35 -19 -6 2 -17 -3 -24 -12 -7 -8 -20 -15 -30 -15 -10 0 -23 -7 -30
-15 -7 -8 -20 -15 -30 -15 -10 0 -23 -7 -30 -15 -7 -8 -19 -15 -26 -15 -8 0
-14 -4 -14 -10 0 -5 -7 -10 -15 -10 -8 0 -15 -5 -15 -11 0 -5 -4 -8 -9 -5 -5
3 -14 -1 -21 -9 -6 -7 -19 -11 -27 -8 -11 4 -14 3 -9 -6 5 -8 1 -14 -13 -18
-12 -3 -21 -9 -21 -14 0 -4 -9 -6 -20 -4 -11 2 -20 0 -20 -5 0 -5 -19 -22 -42
-38 -24 -17 -53 -38 -65 -48 -11 -11 -31 -26 -43 -34 -12 -8 -28 -20 -34 -26
-22 -21 -56 -35 -68 -28 -6 4 -8 3 -5 -3 3 -5 -3 -15 -13 -23 -10 -8 -17 -17
-14 -22 3 -4 -4 -7 -15 -5 -11 1 -21 -2 -22 -8 -1 -5 -10 -16 -21 -23 -10 -7
-16 -18 -13 -23 4 -5 -3 -9 -14 -9 -12 0 -21 -7 -21 -15 0 -9 -9 -15 -21 -15
-15 0 -19 -5 -15 -15 3 -8 2 -14 -3 -12 -10 3 -187 -175 -183 -185 1 -5 -5 -8
-13 -8 -8 0 -15 -8 -15 -19 0 -18 17 -27 65 -37 11 -2 26 -12 33 -21 6 -9 12
-12 12 -5 0 16 16 15 34 -3 9 -10 17 -11 21 -5 4 6 12 7 18 3 20 -12 54 -18
72 -12 6 2 31 0 58 -5 37 -6 51 -4 63 8 8 9 26 16 40 16 13 0 24 4 24 9 0 5
14 15 32 22 18 7 52 32 75 56 24 23 47 43 51 44 13 2 57 28 48 29 -5 0 -3 7 4
15 7 9 21 13 31 10 15 -5 19 -1 19 15 0 12 4 18 10 15 5 -3 15 3 22 15 7 11
17 20 21 20 5 0 15 7 23 15 8 8 20 12 28 9 12 -5 43 22 39 35 0 3 3 5 8 4 5
-2 9 2 9 8 0 5 4 8 9 5 5 -3 14 1 21 9 7 8 18 15 25 15 7 0 15 7 19 15 3 8 12
15 19 15 8 0 22 9 32 20 10 11 24 20 32 20 7 0 13 5 13 10 0 6 5 10 11 10 12
0 82 51 88 63 3 8 47 29 66 32 6 0 9 7 7 14 -3 14 37 48 51 43 4 -1 7 2 7 8 0
12 78 91 113 113 15 10 26 21 23 25 -2 4 9 25 25 46 16 22 29 36 29 32 0 -3 9
-2 20 4 11 6 20 19 20 30 0 10 5 22 10 25 6 4 8 11 4 16 -3 5 -2 8 3 7 4 -2
19 5 33 15 13 9 21 17 17 17 -7 0 -2 6 50 64 28 31 19 36 -31 19z"/>
<path d="M1875 940 c-3 -5 -13 -10 -21 -10 -17 0 -64 -44 -64 -60 0 -5 -4 -10
-10 -10 -5 0 -7 -7 -4 -15 4 -8 1 -15 -5 -15 -7 0 -11 -6 -10 -12 1 -7 -2 -24
-8 -38 -9 -21 -10 -50 -4 -82 1 -8 22 -5 38 5 12 7 57 15 126 20 15 1 27 5 27
9 0 5 3 7 8 6 11 -2 65 12 85 23 11 6 17 6 17 -2 0 -22 18 2 22 30 4 25 0 31
-20 36 -15 4 -22 11 -18 20 3 9 -9 22 -34 36 -22 12 -36 27 -33 33 3 6 3 8 -2
4 -4 -4 -15 -2 -23 5 -13 10 -14 9 -7 -2 5 -8 -5 -5 -22 7 -20 14 -34 18 -38
12z"/>
<path d="M5140 943 c0 -7 -8 -13 -18 -13 -10 0 -34 -15 -54 -34 -20 -19 -39
-32 -42 -29 -3 4 -6 1 -6 -5 0 -6 -12 -25 -27 -42 -25 -31 -26 -33 -9 -45 10
-8 26 -12 37 -10 10 2 19 -1 19 -7 0 -5 7 -8 15 -4 8 3 15 2 15 -3 0 -9 42
-24 72 -25 9 -1 20 -4 24 -8 13 -13 43 -9 84 12 38 20 51 42 30 55 -5 3 -7 12
-3 20 3 8 0 15 -7 15 -7 0 -10 7 -7 14 4 9 -1 17 -11 20 -9 3 -22 15 -27 27
-6 12 -23 28 -40 38 -16 9 -33 21 -37 26 -5 6 -8 5 -8 -2z"/>
</g>
</svg>
