<svg height="512" viewBox="0 0 64 64" width="512" xmlns="http://www.w3.org/2000/svg"><g id="Currency-Exchange-Money-Smartphone-Banking"><g fill="#bddbff"><path d="m52 7v3a1 1 0 0 1 -1 1h-12a1 1 0 0 1 -1-1v-3z"/><path d="m46.9 26.2a9.14 9.14 0 0 0 -1.9-.2 8.985 8.985 0 1 0 1.9.2z"/><path d="m31 3h-5v3a1 1 0 0 1 -1 1h-12a1 1 0 0 1 -1-1v-3h-5a4 4 0 0 0 -4 4v46a4 4 0 0 0 4 4h22v-46a4 4 0 0 1 4-4h2a4 4 0 0 0 -4-4zm-12 37a6.346 6.346 0 0 1 -.87-.05 9 9 0 0 1 .87-17.95c.17 0 .34 0 .5.01a9 9 0 0 1 -.5 17.99z"/></g><g fill="#3d9ae2"><path d="m57 6h-21.1a5.009 5.009 0 0 0 -4.9-4h-24a5.006 5.006 0 0 0 -5 5v46a5.006 5.006 0 0 0 5 5h21.1a5.009 5.009 0 0 0 4.9 4h24a5.006 5.006 0 0 0 5-5v-46a5.006 5.006 0 0 0 -5-5zm-18 2h12v2h-12zm-26-4h12v2h-12zm-9 49v-46a3 3 0 0 1 3-3h4v2a2 2 0 0 0 2 2h12a2 2 0 0 0 2-2v-2h4a3 3 0 0 1 2.816 2h-.816a5.006 5.006 0 0 0 -5 5v4.485a16.914 16.914 0 0 0 -2.5.828l.511-1.484-1.891-.651-1.3 3.781a1 1 0 0 0 .621 1.271l3.781 1.3.65-1.891-1.513-.521a14.912 14.912 0 0 1 1.641-.565v9.117a10 10 0 1 0 0 8.66v11.139a14.994 14.994 0 0 1 -6.9-4.154l-1.449 1.375a16.96 16.96 0 0 0 8.349 4.835v7.475h-21a3 3 0 0 1 -3-3zm23-22a8 8 0 1 1 -8-8 8.009 8.009 0 0 1 8 8zm33 26a3 3 0 0 1 -3 3h-24a3 3 0 0 1 -3-3v-8.108a16.8 16.8 0 0 0 1.957.125 17.008 17.008 0 0 0 4.011-.5l-.735 1.383 1.767.936 1.878-3.531a1 1 0 0 0 -.413-1.353l-3.532-1.878-.94 1.766 1.441.766a14.928 14.928 0 0 1 -5.434.275v-29.735a14.99 14.99 0 0 1 14.376 6.377l1.65-1.129a16.988 16.988 0 0 0 -16.026-7.259v-4.135a3 3 0 0 1 3-3h4v2a2 2 0 0 0 2 2h12a2 2 0 0 0 2-2v-2h4a3 3 0 0 1 3 3z"/><path d="m44 32h2a1 1 0 0 1 1 1h2a3 3 0 0 0 -3-3v-2h-2v2a3 3 0 0 0 0 6h2a1 1 0 0 1 0 2h-2a1 1 0 0 1 -1-1h-2a3 3 0 0 0 3 3v2h2v-2a3 3 0 0 0 0-6h-2a1 1 0 0 1 0-2z"/><path d="m45 25a10 10 0 1 0 10 10 10.011 10.011 0 0 0 -10-10zm0 18a8 8 0 1 1 8-8 8.009 8.009 0 0 1 -8 8z"/><path d="m18 28h2a1 1 0 0 1 1 1h2a3 3 0 0 0 -3-3v-2h-2v2a3 3 0 0 0 0 6h2a1 1 0 0 1 0 2h-2a1 1 0 0 1 -1-1h-2a3 3 0 0 0 3 3v2h2v-2a3 3 0 0 0 0-6h-2a1 1 0 0 1 0-2z"/></g></g></svg>