<svg xmlns="http://www.w3.org/2000/svg" viewBox="0 0 120.92 74.67"><defs><style>.cls-1{fill:#fefefe;}.cls-2{fill:#fdbf3c;}</style></defs><title>Asset 1</title><g id="Layer_2" data-name="Layer 2"><g id="Layer_1-2" data-name="Layer 1"><path class="cls-1" d="M3.3,13C4.12,7.57,7.64,7.5,9.36,7.5c3.65,0,4.19,1.93,3.72,5l-4.29,40,30.28-42a8.43,8.43,0,0,1,7.22-4.06c1.86,0,2.65,1.58,2.31,3.86-.69,4.61-11.94,20.31-19.8,30.5a7.22,7.22,0,0,0-1.33,3.31c-.53,3.51,1.75,6.68,8.43,6.68,1.66,0,4.06-1.38,6.41-2.76,1.28-.76,2.67-1.72,4.06-2.75L44.5,52.26c-4.51,3-9.07,4.89-12.58,4.89-6.61,0-10-3.44-9.22-8.74a13.37,13.37,0,0,1,.54-2.21c-7.72,12.4-12.42,16.18-17,16.18-8.89,0-5.8-8.6-5.61-17.21C.73,44.75,2.19,20.45,3.3,13Z"/><path class="cls-1" d="M59.14,14c3.37,0,6.08,1.24,5.56,4.68-.46,3-3,6-8.06,6-4.41,0-6.11-2-5.64-5.1.31-2.06,2.56-5.57,8.14-5.57Zm3.19,40.14c-4,3-12.16,7.16-17.81,7.16-5.16,0-6.48-2.68-5.87-6.75C39.49,49,44.1,38.9,47,32.29,48.2,30,51.86,29,54.2,29c2.13,0,2.57.75,2.39,1.93-.44,3-7.13,14.45-8.05,20.58-.3,2-.15,3.31,1.43,3.31,3.44,0,9.73-5.16,13.38-7.51l-1,6.82Z"/><path class="cls-1" d="M70.11,41.73C69,49.23,68.1,62,74.09,62c7.51,0,10.34-15.63,11.26-21.76l.24-1.58c-7.76-2.89-8.18-4.2-7.73-7.23.23-1.52.56-3.24,2.07-3.24a3.17,3.17,0,0,1,1.38.48A29.18,29.18,0,0,0,85,30.3a6.88,6.88,0,0,0,1.46.41L86.7,29C87.32,24.86,89.93,15.7,97,15.7c1.86,0,3.91.55,3.57,2.75l-.08.55L97,27.68l-.67,2.62C106,29,111.11,24.17,111.88,19c.75-4.95-2.19-11.08-15.34-11.08C81.46,7.92,72.7,24.51,70.67,38l-.56,3.72Zm50.63-23.48c-1.34,8.88-10.11,17.76-25.93,20l-.88,4.47c-.27,1.79-.69,3.65-.84,4.68l-.11.69c-1.69,9.44-9.55,21.83-20.91,21.83-12.25,0-13.37-18.66-11.51-31C63.75,17.63,79.62,0,98.56,0c16.45,0,23.6,8.81,22.18,18.25Z"/><path class="cls-2" d="M46.26,66.28H2.78a.31.31,0,0,1-.3-.43A.62.62,0,0,1,3,65.43H46.5a.3.3,0,0,1,.3.42A.61.61,0,0,1,46.26,66.28Z"/><path class="cls-2" d="M111.4,66.28H67.93a.31.31,0,0,1-.3-.43.61.61,0,0,1,.55-.42h43.47a.31.31,0,0,1,.3.42.61.61,0,0,1-.55.43Z"/><polygon class="cls-2" points="52.04 62.16 52.07 64.31 54.31 64.26 52.11 65.54 52.23 67.65 50.84 66.3 48.66 67.65 50.02 65.54 48.55 64.26 50.77 64.31 52.04 62.16"/><polygon class="cls-2" points="58.76 62.16 58.78 64.31 61.03 64.26 58.82 65.54 58.94 67.65 57.55 66.3 55.38 67.65 56.73 65.54 55.26 64.26 57.49 64.31 58.76 62.16"/><polygon class="cls-2" points="65.47 62.16 65.5 64.31 67.75 64.26 65.54 65.54 65.66 67.65 64.27 66.3 62.09 67.65 63.45 65.54 61.98 64.26 64.2 64.31 65.47 62.16"/><path class="cls-1" d="M98.48,51s-.08.58-.21,1.58c-.1.54-.18,1.21-.34,1.94s-.33,1.56-.58,2.46a27.37,27.37,0,0,1-1,2.84,23,23,0,0,1-1.5,3,24,24,0,0,1-2.1,2.91,27.1,27.1,0,0,1-2.58,2.56l-.7.57-.17.14-.11.09-.09.07-.34.25c-.45.35-1,.7-1.47,1a27.42,27.42,0,0,1-3,1.68,26.84,26.84,0,0,1-5.73,1.93,24.56,24.56,0,0,1-4.19.53c-.51,0-.91,0-1.18,0h-.42l.42,0c.26,0,.66-.08,1.16-.17a24.07,24.07,0,0,0,4-1,25.25,25.25,0,0,0,5.23-2.51A23.18,23.18,0,0,0,86.24,69c.41-.36.8-.69,1.23-1.1l.31-.3.08-.08,0-.06.15-.15.57-.6a25.29,25.29,0,0,0,2-2.57,20.86,20.86,0,0,0,1.49-2.72,19.5,19.5,0,0,0,1-2.71,25.71,25.71,0,0,0,.53-2.54c.12-.8.2-1.54.24-2.2s.06-1.22.08-1.69c0-1,0-1.58,0-1.58h0a2.27,2.27,0,0,1,4.54,0A2.64,2.64,0,0,1,98.48,51Z"/><polygon class="cls-2" points="56.94 12.29 63.25 8.97 62.04 16 67.15 20.98 60.09 22 56.94 28.4 53.78 22 46.72 20.98 51.83 16 50.62 8.97 56.94 12.29"/></g></g></svg>